%
M48
M72
T01C0.02362
T02C0.02400
T03C0.03150
T04C0.03937
T05C0.04000
T06C0.04724
T07C0.05118
T08C0.05200
T09C0.12598
%
T01
X246565Y150634
X237510Y144335
X227274Y147091
X223730Y138035
X208770Y143941
X219006Y165201
X243022Y132524
X247746Y128980
X251171Y121933
X238691Y117563
X230896Y110949
X226486Y114413
X222156Y116776
X237510Y125831
X288297Y114020
X298140Y119925
X297746Y104965
X240659Y66776
X236565Y63114
X248533Y46303
X242628Y43941
X236093Y34217
X254400Y34413
X264281Y40004
X146171Y119925
X144990Y129768
T02
X199124Y132524
X194203Y131047
X198632Y116776
X211919Y114807
X211427Y109886
X183868Y105949
X152864Y109394
X152864Y126618
T03
X133179Y155791
X133179Y145555
T04
X282195Y143941
X282195Y136067
X282195Y128193
X282195Y120319
X202116Y52287
X192274Y52287
X184400Y52287
X174557Y52287
T05
X155541Y187091
X145541Y187091
X135541Y187091
X135541Y177091
X145541Y177091
X155541Y177091
T06
X305108Y175516
X305108Y165516
X305108Y155516
X305108Y145516
X305108Y135516
X305108Y125516
X305108Y115516
X305108Y105516
X305108Y95516
X305108Y85516
X305108Y75516
X305108Y65516
X305108Y55516
X305108Y45516
T07
X162470Y41618
X214203Y41618
T08
X140069Y70240
X140069Y30240
X281211Y29846
X281211Y69846
T09
X285659Y182642
X132549Y202287
X309715Y25122
M30
