  0
SECTION
  2
HEADER
  9
$ACADVER
  1
AC1009
  9
$FILLMODE
 70
1
  9
$EXTMIN
 10
-30.9135
 20
-3.6270
 30
0.0000
  9
$EXTMAX
 10
52.9200
 20
54.8160
 30
0.0000
  0
ENDSEC
  0
SECTION
  2
TABLES
  0
TABLE
  2
LTYPE
 70
1
  0
LTYPE
  2
CONTINUOUS
 70
64
  3
Solid line
 72
65
 73
0
 40
0
  0
ENDTAB
  0
TABLE
  2
LAYER
 70
255
  0
LAYER
  2
17
 70
64
 62
82
  6
CONTINUOUS
  0
LAYER
  2
20
 70
64
 62
7
  6
CONTINUOUS
  0
LAYER
  2
44
 70
64
 62
253
  6
CONTINUOUS
  0
LAYER
  2
45
 70
64
 62
253
  6
CONTINUOUS
  0
LAYER
  2
46
 70
64
 62
140
  6
CONTINUOUS
  0
ENDTAB
  0
ENDSEC
  0
SECTION
  2
BLOCKS
  0
BLOCK
  8
0
  2
RECT
 70
64
 10
0.0000
 20
0.0000
 30
0.0000
  3
RECT
  0
SOLID
  8
0
 10
-0.5000
 20
-0.5000
 30
0.0000
 11
0.5000
 21
-0.5000
 31
0.0000
 12
-0.5000
 22
0.5000
 32
0.0000
 13
0.5000
 23
0.5000
 33
0.0000
  0
ENDBLK
  8
0
  0
BLOCK
  8
0
  2
PIE
 70
64
 10
0.0000
 20
0.0000
 30
0.0000
  3
PIE
  0
POLYLINE
  8
0
 66
1
 10
0.0000
 20
0.0000
 30
0.0000
 40
0.5000
 41
0.5000
 70
0
  0
VERTEX
  8
0
 10
0.0000
 20
-0.2500
 30
0.0000
 42
1.0000
  0
VERTEX
  8
0
 10
0.0000
 20
0.2500
 30
0.0000
 42
1.0000
  0
VERTEX
  8
0
 10
0.0000
 20
-0.2500
 30
0.0000
  0
SEQEND
  8
0
  0
ENDBLK
  8
0
  0
BLOCK
  8
0
  2
OCTAGONP
 70
64
 10
0.0000
 20
0.0000
 30
0.0000
  3
OCTAGONP
  0
POLYLINE
  8
0
 66
1
 10
0.0000
 20
0.0000
 30
0.0000
 40
0.5000
 41
0.5000
 70
0
  0
VERTEX
  8
0
 10
-0.2500
 20
-0.1036
 30
0.0000
  0
VERTEX
  8
0
 10
-0.2500
 20
0.1036
 30
0.0000
  0
VERTEX
  8
0
 10
-0.1036
 20
0.2500
 30
0.0000
  0
VERTEX
  8
0
 10
0.1036
 20
0.2500
 30
0.0000
  0
VERTEX
  8
0
 10
0.2500
 20
0.1036
 30
0.0000
  0
VERTEX
  8
0
 10
0.2500
 20
-0.1036
 30
0.0000
  0
VERTEX
  8
0
 10
0.1036
 20
-0.2500
 30
0.0000
  0
VERTEX
  8
0
 10
-0.1036
 20
-0.2500
 30
0.0000
  0
VERTEX
  8
0
 10
-0.2500
 20
-0.1036
 30
0.0000
  0
VERTEX
  8
0
 10
-0.2500
 20
0.1036
 30
0.0000
  0
SEQEND
  8
0
  0
ENDBLK
  8
0
  0
BLOCK
  8
0
  2
SQUAREP
 70
64
 10
0.0000
 20
0.0000
 30
0.0000
  3
SQUAREP
  0
SOLID
  8
0
 10
-0.5000
 20
-0.5000
 30
0.0000
 11
0.5000
 21
-0.5000
 31
0.0000
 12
-0.5000
 22
0.5000
 32
0.0000
 13
0.5000
 23
0.5000
 33
0.0000
  0
ENDBLK
  8
0
  0
BLOCK
  8
0
  2
ROUNDP
 70
64
 10
0.0000
 20
0.0000
 30
0.0000
  3
ROUNDP
  0
POLYLINE
  8
0
 66
1
 10
0.0000
 20
0.0000
 30
0.0000
 40
0.5000
 41
0.5000
 70
0
  0
VERTEX
  8
0
 10
0.0000
 20
-0.2500
 30
0.0000
 42
1.0000
  0
VERTEX
  8
0
 10
0.0000
 20
0.2500
 30
0.0000
 42
1.0000
  0
VERTEX
  8
0
 10
0.0000
 20
-0.2500
 30
0.0000
  0
SEQEND
  8
0
  0
ENDBLK
  8
0
  0
BLOCK
  8
0
  2
ANNULUSP
 70
64
 10
0.0000
 20
0.0000
 30
0.0000
  3
ANNULUSP
  0
POLYLINE
  8
0
 66
1
 10
0.0000
 20
0.0000
 30
0.0000
 40
0.5000
 41
0.5000
 70
0
  0
VERTEX
  8
0
 10
0.0000
 20
-0.2500
 30
0.0000
 42
1.0000
  0
VERTEX
  8
0
 10
0.0000
 20
0.2500
 30
0.0000
 42
1.0000
  0
VERTEX
  8
0
 10
0.0000
 20
-0.2500
 30
0.0000
  0
SEQEND
  8
0
  0
ENDBLK
  8
0
  0
BLOCK
  8
0
  2
THERMALP
 70
64
 10
0.0000
 20
0.0000
 30
0.0000
  3
THERMALP
  0
POLYLINE
  8
0
 66
1
 10
0.0000
 20
0.0000
 30
0.0000
 40
0.1000
 41
0.1000
 70
0
  0
VERTEX
  8
0
 10
-0.2379
 20
0.4500
 30
0.0000
  0
VERTEX
  8
0
 10
0.2379
 20
0.4500
 30
0.0000
  0
SEQEND
  8
0
  0
POLYLINE
  8
0
 66
1
 10
0.0000
 20
0.0000
 30
0.0000
 40
0.0500
 41
0.0500
 70
0
  0
VERTEX
  8
0
 10
0.2379
 20
0.4250
 30
0.0000
 42
1.0000
  0
VERTEX
  8
0
 10
0.2379
 20
0.4750
 30
0.0000
  0
SEQEND
  8
0
  0
POLYLINE
  8
0
 66
1
 10
0.0000
 20
0.0000
 30
0.0000
 40
0.0500
 41
0.0500
 70
0
  0
VERTEX
  8
0
 10
-0.2379
 20
0.4750
 30
0.0000
 42
1.0000
  0
VERTEX
  8
0
 10
-0.2379
 20
0.4250
 30
0.0000
  0
SEQEND
  8
0
  0
POLYLINE
  8
0
 66
1
 10
0.0000
 20
0.0000
 30
0.0000
 40
0.1000
 41
0.1000
 70
0
  0
VERTEX
  8
0
 10
0.4500
 20
0.2379
 30
0.0000
  0
VERTEX
  8
0
 10
0.4500
 20
-0.2379
 30
0.0000
  0
SEQEND
  8
0
  0
POLYLINE
  8
0
 66
1
 10
0.0000
 20
0.0000
 30
0.0000
 40
0.0500
 41
0.0500
 70
0
  0
VERTEX
  8
0
 10
0.4250
 20
-0.2379
 30
0.0000
 42
1.0000
  0
VERTEX
  8
0
 10
0.4750
 20
-0.2379
 30
0.0000
  0
SEQEND
  8
0
  0
POLYLINE
  8
0
 66
1
 10
0.0000
 20
0.0000
 30
0.0000
 40
0.0500
 41
0.0500
 70
0
  0
VERTEX
  8
0
 10
0.4750
 20
0.2379
 30
0.0000
 42
1.0000
  0
VERTEX
  8
0
 10
0.4250
 20
0.2379
 30
0.0000
  0
SEQEND
  8
0
  0
POLYLINE
  8
0
 66
1
 10
0.0000
 20
0.0000
 30
0.0000
 40
0.1000
 41
0.1000
 70
0
  0
VERTEX
  8
0
 10
0.2379
 20
-0.4500
 30
0.0000
  0
VERTEX
  8
0
 10
-0.2379
 20
-0.4500
 30
0.0000
  0
SEQEND
  8
0
  0
POLYLINE
  8
0
 66
1
 10
0.0000
 20
0.0000
 30
0.0000
 40
0.0500
 41
0.0500
 70
0
  0
VERTEX
  8
0
 10
-0.2379
 20
-0.4250
 30
0.0000
 42
1.0000
  0
VERTEX
  8
0
 10
-0.2379
 20
-0.4750
 30
0.0000
  0
SEQEND
  8
0
  0
POLYLINE
  8
0
 66
1
 10
0.0000
 20
0.0000
 30
0.0000
 40
0.0500
 41
0.0500
 70
0
  0
VERTEX
  8
0
 10
0.2379
 20
-0.4750
 30
0.0000
 42
1.0000
  0
VERTEX
  8
0
 10
0.2379
 20
-0.4250
 30
0.0000
  0
SEQEND
  8
0
  0
POLYLINE
  8
0
 66
1
 10
0.0000
 20
0.0000
 30
0.0000
 40
0.1000
 41
0.1000
 70
0
  0
VERTEX
  8
0
 10
-0.4500
 20
-0.2379
 30
0.0000
  0
VERTEX
  8
0
 10
-0.4500
 20
0.2379
 30
0.0000
  0
SEQEND
  8
0
  0
POLYLINE
  8
0
 66
1
 10
0.0000
 20
0.0000
 30
0.0000
 40
0.0500
 41
0.0500
 70
0
  0
VERTEX
  8
0
 10
-0.4250
 20
0.2379
 30
0.0000
 42
1.0000
  0
VERTEX
  8
0
 10
-0.4750
 20
0.2379
 30
0.0000
  0
SEQEND
  8
0
  0
POLYLINE
  8
0
 66
1
 10
0.0000
 20
0.0000
 30
0.0000
 40
0.0500
 41
0.0500
 70
0
  0
VERTEX
  8
0
 10
-0.4750
 20
-0.2379
 30
0.0000
 42
1.0000
  0
VERTEX
  8
0
 10
-0.4250
 20
-0.2379
 30
0.0000
  0
SEQEND
  8
0
  0
ENDBLK
  8
0
  0
BLOCK
  8
0
  2
OCTAGONV
 70
64
 10
0.0000
 20
0.0000
 30
0.0000
  3
OCTAGONV
  0
POLYLINE
  8
0
 66
1
 10
0.0000
 20
0.0000
 30
0.0000
 40
0.5000
 41
0.5000
 70
0
  0
VERTEX
  8
0
 10
-0.2500
 20
-0.1036
 30
0.0000
  0
VERTEX
  8
0
 10
-0.2500
 20
0.1036
 30
0.0000
  0
VERTEX
  8
0
 10
-0.1036
 20
0.2500
 30
0.0000
  0
VERTEX
  8
0
 10
0.1036
 20
0.2500
 30
0.0000
  0
VERTEX
  8
0
 10
0.2500
 20
0.1036
 30
0.0000
  0
VERTEX
  8
0
 10
0.2500
 20
-0.1036
 30
0.0000
  0
VERTEX
  8
0
 10
0.1036
 20
-0.2500
 30
0.0000
  0
VERTEX
  8
0
 10
-0.1036
 20
-0.2500
 30
0.0000
  0
VERTEX
  8
0
 10
-0.2500
 20
-0.1036
 30
0.0000
  0
VERTEX
  8
0
 10
-0.2500
 20
0.1036
 30
0.0000
  0
SEQEND
  8
0
  0
ENDBLK
  8
0
  0
BLOCK
  8
0
  2
SQUAREV
 70
64
 10
0.0000
 20
0.0000
 30
0.0000
  3
SQUAREV
  0
SOLID
  8
0
 10
-0.5000
 20
-0.5000
 30
0.0000
 11
0.5000
 21
-0.5000
 31
0.0000
 12
-0.5000
 22
0.5000
 32
0.0000
 13
0.5000
 23
0.5000
 33
0.0000
  0
ENDBLK
  8
0
  0
BLOCK
  8
0
  2
ROUNDV
 70
64
 10
0.0000
 20
0.0000
 30
0.0000
  3
ROUNDV
  0
POLYLINE
  8
0
 66
1
 10
0.0000
 20
0.0000
 30
0.0000
 40
0.5000
 41
0.5000
 70
0
  0
VERTEX
  8
0
 10
0.0000
 20
-0.2500
 30
0.0000
 42
1.0000
  0
VERTEX
  8
0
 10
0.0000
 20
0.2500
 30
0.0000
 42
1.0000
  0
VERTEX
  8
0
 10
0.0000
 20
-0.2500
 30
0.0000
  0
SEQEND
  8
0
  0
ENDBLK
  8
0
  0
BLOCK
  8
0
  2
ANNULUSV
 70
64
 10
0.0000
 20
0.0000
 30
0.0000
  3
ANNULUSV
  0
POLYLINE
  8
0
 66
1
 10
0.0000
 20
0.0000
 30
0.0000
 40
0.5000
 41
0.5000
 70
0
  0
VERTEX
  8
0
 10
0.0000
 20
-0.2500
 30
0.0000
 42
1.0000
  0
VERTEX
  8
0
 10
0.0000
 20
0.2500
 30
0.0000
 42
1.0000
  0
VERTEX
  8
0
 10
0.0000
 20
-0.2500
 30
0.0000
  0
SEQEND
  8
0
  0
ENDBLK
  8
0
  0
BLOCK
  8
0
  2
THERMALV
 70
64
 10
0.0000
 20
0.0000
 30
0.0000
  3
THERMALV
  0
POLYLINE
  8
0
 66
1
 10
0.0000
 20
0.0000
 30
0.0000
 40
0.1000
 41
0.1000
 70
0
  0
VERTEX
  8
0
 10
-0.2379
 20
0.4500
 30
0.0000
  0
VERTEX
  8
0
 10
0.2379
 20
0.4500
 30
0.0000
  0
SEQEND
  8
0
  0
POLYLINE
  8
0
 66
1
 10
0.0000
 20
0.0000
 30
0.0000
 40
0.0500
 41
0.0500
 70
0
  0
VERTEX
  8
0
 10
0.2379
 20
0.4250
 30
0.0000
 42
1.0000
  0
VERTEX
  8
0
 10
0.2379
 20
0.4750
 30
0.0000
  0
SEQEND
  8
0
  0
POLYLINE
  8
0
 66
1
 10
0.0000
 20
0.0000
 30
0.0000
 40
0.0500
 41
0.0500
 70
0
  0
VERTEX
  8
0
 10
-0.2379
 20
0.4750
 30
0.0000
 42
1.0000
  0
VERTEX
  8
0
 10
-0.2379
 20
0.4250
 30
0.0000
  0
SEQEND
  8
0
  0
POLYLINE
  8
0
 66
1
 10
0.0000
 20
0.0000
 30
0.0000
 40
0.1000
 41
0.1000
 70
0
  0
VERTEX
  8
0
 10
0.4500
 20
0.2379
 30
0.0000
  0
VERTEX
  8
0
 10
0.4500
 20
-0.2379
 30
0.0000
  0
SEQEND
  8
0
  0
POLYLINE
  8
0
 66
1
 10
0.0000
 20
0.0000
 30
0.0000
 40
0.0500
 41
0.0500
 70
0
  0
VERTEX
  8
0
 10
0.4250
 20
-0.2379
 30
0.0000
 42
1.0000
  0
VERTEX
  8
0
 10
0.4750
 20
-0.2379
 30
0.0000
  0
SEQEND
  8
0
  0
POLYLINE
  8
0
 66
1
 10
0.0000
 20
0.0000
 30
0.0000
 40
0.0500
 41
0.0500
 70
0
  0
VERTEX
  8
0
 10
0.4750
 20
0.2379
 30
0.0000
 42
1.0000
  0
VERTEX
  8
0
 10
0.4250
 20
0.2379
 30
0.0000
  0
SEQEND
  8
0
  0
POLYLINE
  8
0
 66
1
 10
0.0000
 20
0.0000
 30
0.0000
 40
0.1000
 41
0.1000
 70
0
  0
VERTEX
  8
0
 10
0.2379
 20
-0.4500
 30
0.0000
  0
VERTEX
  8
0
 10
-0.2379
 20
-0.4500
 30
0.0000
  0
SEQEND
  8
0
  0
POLYLINE
  8
0
 66
1
 10
0.0000
 20
0.0000
 30
0.0000
 40
0.0500
 41
0.0500
 70
0
  0
VERTEX
  8
0
 10
-0.2379
 20
-0.4250
 30
0.0000
 42
1.0000
  0
VERTEX
  8
0
 10
-0.2379
 20
-0.4750
 30
0.0000
  0
SEQEND
  8
0
  0
POLYLINE
  8
0
 66
1
 10
0.0000
 20
0.0000
 30
0.0000
 40
0.0500
 41
0.0500
 70
0
  0
VERTEX
  8
0
 10
0.2379
 20
-0.4750
 30
0.0000
 42
1.0000
  0
VERTEX
  8
0
 10
0.2379
 20
-0.4250
 30
0.0000
  0
SEQEND
  8
0
  0
POLYLINE
  8
0
 66
1
 10
0.0000
 20
0.0000
 30
0.0000
 40
0.1000
 41
0.1000
 70
0
  0
VERTEX
  8
0
 10
-0.4500
 20
-0.2379
 30
0.0000
  0
VERTEX
  8
0
 10
-0.4500
 20
0.2379
 30
0.0000
  0
SEQEND
  8
0
  0
POLYLINE
  8
0
 66
1
 10
0.0000
 20
0.0000
 30
0.0000
 40
0.0500
 41
0.0500
 70
0
  0
VERTEX
  8
0
 10
-0.4250
 20
0.2379
 30
0.0000
 42
1.0000
  0
VERTEX
  8
0
 10
-0.4750
 20
0.2379
 30
0.0000
  0
SEQEND
  8
0
  0
POLYLINE
  8
0
 66
1
 10
0.0000
 20
0.0000
 30
0.0000
 40
0.0500
 41
0.0500
 70
0
  0
VERTEX
  8
0
 10
-0.4750
 20
-0.2379
 30
0.0000
 42
1.0000
  0
VERTEX
  8
0
 10
-0.4250
 20
-0.2379
 30
0.0000
  0
SEQEND
  8
0
  0
ENDBLK
  8
0
  0
BLOCK
  8
0
  2
LONGP100
 70
64
 10
0.0000
 20
0.0000
 30
0.0000
  3
LONGP100
  0
POLYLINE
  8
0
 66
1
 10
0.0000
 20
0.0000
 30
0.0000
 40
1.0000
 41
1.0000
 70
0
  0
VERTEX
  8
0
 10
-0.5000
 20
0.0000
 30
0.0000
  0
VERTEX
  8
0
 10
0.5000
 20
0.0000
 30
0.0000
  0
SEQEND
  8
0
  0
POLYLINE
  8
0
 66
1
 10
0.0000
 20
0.0000
 30
0.0000
 40
0.5000
 41
0.5000
 70
0
  0
VERTEX
  8
0
 10
0.5000
 20
-0.2500
 30
0.0000
 42
1.0000
  0
VERTEX
  8
0
 10
0.5000
 20
0.2500
 30
0.0000
  0
SEQEND
  8
0
  0
POLYLINE
  8
0
 66
1
 10
0.0000
 20
0.0000
 30
0.0000
 40
0.5000
 41
0.5000
 70
0
  0
VERTEX
  8
0
 10
-0.5000
 20
0.2500
 30
0.0000
 42
1.0000
  0
VERTEX
  8
0
 10
-0.5000
 20
-0.2500
 30
0.0000
  0
SEQEND
  8
0
  0
ENDBLK
  8
0
  0
ENDSEC
  0
SECTION
  2
ENTITIES
  0
POLYLINE
  8
20
 66
1
 10
0.0000
 20
0.0000
 30
0.0000
 40
0.4064
 41
0.4064
 70
0
  0
VERTEX
  8
20
 10
0.1600
 20
50.2800
 30
0.0000
  0
VERTEX
  8
20
 10
50.1600
 20
50.2800
 30
0.0000
  0
SEQEND
  8
0
  0
POLYLINE
  8
20
 66
1
 10
0.0000
 20
0.0000
 30
0.0000
 40
0.2032
 41
0.2032
 70
0
  0
VERTEX
  8
20
 10
50.1600
 20
50.1784
 30
0.0000
 42
1.0000
  0
VERTEX
  8
20
 10
50.1600
 20
50.3816
 30
0.0000
  0
SEQEND
  8
0
  0
POLYLINE
  8
20
 66
1
 10
0.0000
 20
0.0000
 30
0.0000
 40
0.2032
 41
0.2032
 70
0
  0
VERTEX
  8
20
 10
0.1600
 20
50.3816
 30
0.0000
 42
1.0000
  0
VERTEX
  8
20
 10
0.1600
 20
50.1784
 30
0.0000
  0
SEQEND
  8
0
  0
POLYLINE
  8
20
 66
1
 10
0.0000
 20
0.0000
 30
0.0000
 40
0.4064
 41
0.4064
 70
0
  0
VERTEX
  8
20
 10
50.1600
 20
50.2800
 30
0.0000
  0
VERTEX
  8
20
 10
50.1600
 20
0.2800
 30
0.0000
  0
SEQEND
  8
0
  0
POLYLINE
  8
20
 66
1
 10
0.0000
 20
0.0000
 30
0.0000
 40
0.2032
 41
0.2032
 70
0
  0
VERTEX
  8
20
 10
50.0584
 20
0.2800
 30
0.0000
 42
1.0000
  0
VERTEX
  8
20
 10
50.2616
 20
0.2800
 30
0.0000
  0
SEQEND
  8
0
  0
POLYLINE
  8
20
 66
1
 10
0.0000
 20
0.0000
 30
0.0000
 40
0.2032
 41
0.2032
 70
0
  0
VERTEX
  8
20
 10
50.2616
 20
50.2800
 30
0.0000
 42
1.0000
  0
VERTEX
  8
20
 10
50.0584
 20
50.2800
 30
0.0000
  0
SEQEND
  8
0
  0
POLYLINE
  8
20
 66
1
 10
0.0000
 20
0.0000
 30
0.0000
 40
0.4064
 41
0.4064
 70
0
  0
VERTEX
  8
20
 10
50.1600
 20
0.2800
 30
0.0000
  0
VERTEX
  8
20
 10
0.1600
 20
0.2800
 30
0.0000
  0
SEQEND
  8
0
  0
POLYLINE
  8
20
 66
1
 10
0.0000
 20
0.0000
 30
0.0000
 40
0.2032
 41
0.2032
 70
0
  0
VERTEX
  8
20
 10
0.1600
 20
0.3816
 30
0.0000
 42
1.0000
  0
VERTEX
  8
20
 10
0.1600
 20
0.1784
 30
0.0000
  0
SEQEND
  8
0
  0
POLYLINE
  8
20
 66
1
 10
0.0000
 20
0.0000
 30
0.0000
 40
0.2032
 41
0.2032
 70
0
  0
VERTEX
  8
20
 10
50.1600
 20
0.1784
 30
0.0000
 42
1.0000
  0
VERTEX
  8
20
 10
50.1600
 20
0.3816
 30
0.0000
  0
SEQEND
  8
0
  0
POLYLINE
  8
20
 66
1
 10
0.0000
 20
0.0000
 30
0.0000
 40
0.4064
 41
0.4064
 70
0
  0
VERTEX
  8
20
 10
0.1600
 20
0.2800
 30
0.0000
  0
VERTEX
  8
20
 10
0.1600
 20
50.2800
 30
0.0000
  0
SEQEND
  8
0
  0
POLYLINE
  8
20
 66
1
 10
0.0000
 20
0.0000
 30
0.0000
 40
0.2032
 41
0.2032
 70
0
  0
VERTEX
  8
20
 10
0.2616
 20
50.2800
 30
0.0000
 42
1.0000
  0
VERTEX
  8
20
 10
0.0584
 20
50.2800
 30
0.0000
  0
SEQEND
  8
0
  0
POLYLINE
  8
20
 66
1
 10
0.0000
 20
0.0000
 30
0.0000
 40
0.2032
 41
0.2032
 70
0
  0
VERTEX
  8
20
 10
0.0584
 20
0.2800
 30
0.0000
 42
1.0000
  0
VERTEX
  8
20
 10
0.2616
 20
0.2800
 30
0.0000
  0
SEQEND
  8
0
  0
POLYLINE
  8
20
 66
1
 10
0.0000
 20
0.0000
 30
0.0000
 40
2.5400
 41
2.5400
 70
0
  0
VERTEX
  8
20
 10
-0.6100
 20
0.0000
 30
0.0000
  0
VERTEX
  8
20
 10
-1.3000
 20
0.0000
 30
0.0000
  0
SEQEND
  8
0
  0
POLYLINE
  8
20
 66
1
 10
0.0000
 20
0.0000
 30
0.0000
 40
1.2700
 41
1.2700
 70
0
  0
VERTEX
  8
20
 10
-1.3000
 20
0.6350
 30
0.0000
 42
1.0000
  0
VERTEX
  8
20
 10
-1.3000
 20
-0.6350
 30
0.0000
  0
SEQEND
  8
0
  0
POLYLINE
  8
20
 66
1
 10
0.0000
 20
0.0000
 30
0.0000
 40
1.2700
 41
1.2700
 70
0
  0
VERTEX
  8
20
 10
-0.6100
 20
-0.6350
 30
0.0000
 42
1.0000
  0
VERTEX
  8
20
 10
-0.6100
 20
0.6350
 30
0.0000
  0
SEQEND
  8
0
  0
POLYLINE
  8
20
 66
1
 10
0.0000
 20
0.0000
 30
0.0000
 40
2.5400
 41
2.5400
 70
0
  0
VERTEX
  8
20
 10
-1.3000
 20
0.0000
 30
0.0000
  0
VERTEX
  8
20
 10
-1.3000
 20
51.5400
 30
0.0000
  0
SEQEND
  8
0
  0
POLYLINE
  8
20
 66
1
 10
0.0000
 20
0.0000
 30
0.0000
 40
1.2700
 41
1.2700
 70
0
  0
VERTEX
  8
20
 10
-0.6650
 20
51.5400
 30
0.0000
 42
1.0000
  0
VERTEX
  8
20
 10
-1.9350
 20
51.5400
 30
0.0000
  0
SEQEND
  8
0
  0
POLYLINE
  8
20
 66
1
 10
0.0000
 20
0.0000
 30
0.0000
 40
1.2700
 41
1.2700
 70
0
  0
VERTEX
  8
20
 10
-1.9350
 20
0.0000
 30
0.0000
 42
1.0000
  0
VERTEX
  8
20
 10
-0.6650
 20
0.0000
 30
0.0000
  0
SEQEND
  8
0
  0
POLYLINE
  8
20
 66
1
 10
0.0000
 20
0.0000
 30
0.0000
 40
2.5400
 41
2.5400
 70
0
  0
VERTEX
  8
20
 10
-1.3000
 20
51.5400
 30
0.0000
  0
VERTEX
  8
20
 10
51.6500
 20
51.5400
 30
0.0000
  0
SEQEND
  8
0
  0
POLYLINE
  8
20
 66
1
 10
0.0000
 20
0.0000
 30
0.0000
 40
1.2700
 41
1.2700
 70
0
  0
VERTEX
  8
20
 10
51.6500
 20
50.9050
 30
0.0000
 42
1.0000
  0
VERTEX
  8
20
 10
51.6500
 20
52.1750
 30
0.0000
  0
SEQEND
  8
0
  0
POLYLINE
  8
20
 66
1
 10
0.0000
 20
0.0000
 30
0.0000
 40
1.2700
 41
1.2700
 70
0
  0
VERTEX
  8
20
 10
-1.3000
 20
52.1750
 30
0.0000
 42
1.0000
  0
VERTEX
  8
20
 10
-1.3000
 20
50.9050
 30
0.0000
  0
SEQEND
  8
0
  0
POLYLINE
  8
20
 66
1
 10
0.0000
 20
0.0000
 30
0.0000
 40
2.5400
 41
2.5400
 70
0
  0
VERTEX
  8
20
 10
51.6500
 20
51.5400
 30
0.0000
  0
VERTEX
  8
20
 10
51.6500
 20
-1.0400
 30
0.0000
  0
SEQEND
  8
0
  0
POLYLINE
  8
20
 66
1
 10
0.0000
 20
0.0000
 30
0.0000
 40
1.2700
 41
1.2700
 70
0
  0
VERTEX
  8
20
 10
51.0150
 20
-1.0400
 30
0.0000
 42
1.0000
  0
VERTEX
  8
20
 10
52.2850
 20
-1.0400
 30
0.0000
  0
SEQEND
  8
0
  0
POLYLINE
  8
20
 66
1
 10
0.0000
 20
0.0000
 30
0.0000
 40
1.2700
 41
1.2700
 70
0
  0
VERTEX
  8
20
 10
52.2850
 20
51.5400
 30
0.0000
 42
1.0000
  0
VERTEX
  8
20
 10
51.0150
 20
51.5400
 30
0.0000
  0
SEQEND
  8
0
  0
POLYLINE
  8
20
 66
1
 10
0.0000
 20
0.0000
 30
0.0000
 40
2.5400
 41
2.5400
 70
0
  0
VERTEX
  8
20
 10
51.6500
 20
-1.0400
 30
0.0000
  0
VERTEX
  8
20
 10
-1.2100
 20
-1.0400
 30
0.0000
  0
SEQEND
  8
0
  0
POLYLINE
  8
20
 66
1
 10
0.0000
 20
0.0000
 30
0.0000
 40
1.2700
 41
1.2700
 70
0
  0
VERTEX
  8
20
 10
-1.2100
 20
-0.4050
 30
0.0000
 42
1.0000
  0
VERTEX
  8
20
 10
-1.2100
 20
-1.6750
 30
0.0000
  0
SEQEND
  8
0
  0
POLYLINE
  8
20
 66
1
 10
0.0000
 20
0.0000
 30
0.0000
 40
1.2700
 41
1.2700
 70
0
  0
VERTEX
  8
20
 10
51.6500
 20
-1.6750
 30
0.0000
 42
1.0000
  0
VERTEX
  8
20
 10
51.6500
 20
-0.4050
 30
0.0000
  0
SEQEND
  8
0
  0
POLYLINE
  8
20
 66
1
 10
0.0000
 20
0.0000
 30
0.0000
 40
2.5400
 41
2.5400
 70
0
  0
VERTEX
  8
20
 10
-1.2100
 20
-1.0400
 30
0.0000
  0
VERTEX
  8
20
 10
-1.2100
 20
2.3400
 30
0.0000
  0
SEQEND
  8
0
  0
POLYLINE
  8
20
 66
1
 10
0.0000
 20
0.0000
 30
0.0000
 40
1.2700
 41
1.2700
 70
0
  0
VERTEX
  8
20
 10
-0.5750
 20
2.3400
 30
0.0000
 42
1.0000
  0
VERTEX
  8
20
 10
-1.8450
 20
2.3400
 30
0.0000
  0
SEQEND
  8
0
  0
POLYLINE
  8
20
 66
1
 10
0.0000
 20
0.0000
 30
0.0000
 40
1.2700
 41
1.2700
 70
0
  0
VERTEX
  8
20
 10
-1.8450
 20
-1.0400
 30
0.0000
 42
1.0000
  0
VERTEX
  8
20
 10
-0.5750
 20
-1.0400
 30
0.0000
  0
SEQEND
  8
0
  0
CIRCLE
  8
20
 10
2.5000
 20
47.5000
 30
0.0000
 40
1.6000
  0
CIRCLE
  8
20
 10
47.5000
 20
2.5000
 30
0.0000
 40
1.6000
  0
POLYLINE
  8
20
 66
1
 10
0.0000
 20
0.0000
 30
0.0000
 40
0.1270
 41
0.1270
 70
0
  0
VERTEX
  8
20
 10
41.4000
 20
40.9066
 30
0.0000
 42
1.0000
  0
VERTEX
  8
20
 10
41.4000
 20
44.1534
 30
0.0000
 42
1.0000
  0
VERTEX
  8
20
 10
41.4000
 20
40.9066
 30
0.0000
  0
SEQEND
  8
0
  0
POLYLINE
  8
45
 66
1
 10
0.0000
 20
0.0000
 30
0.0000
 40
0.1270
 41
0.1270
 70
0
  0
VERTEX
  8
45
 10
41.4100
 20
4.3367
 30
0.0000
 42
1.0000
  0
VERTEX
  8
45
 10
41.4100
 20
7.3633
 30
0.0000
 42
1.0000
  0
VERTEX
  8
45
 10
41.4100
 20
4.3367
 30
0.0000
  0
SEQEND
  8
0
  0
POLYLINE
  8
45
 66
1
 10
0.0000
 20
0.0000
 30
0.0000
 40
0.1270
 41
0.1270
 70
0
  0
VERTEX
  8
45
 10
-27.9500
 20
3.9867
 30
0.0000
 42
1.0000
  0
VERTEX
  8
45
 10
-27.9500
 20
7.0133
 30
0.0000
 42
1.0000
  0
VERTEX
  8
45
 10
-27.9500
 20
3.9867
 30
0.0000
  0
SEQEND
  8
0
  0
POLYLINE
  8
45
 66
1
 10
0.0000
 20
0.0000
 30
0.0000
 40
0.1270
 41
0.1270
 70
0
  0
VERTEX
  8
45
 10
-27.7400
 20
41.1067
 30
0.0000
 42
1.0000
  0
VERTEX
  8
45
 10
-27.7400
 20
44.1333
 30
0.0000
 42
1.0000
  0
VERTEX
  8
45
 10
-27.7400
 20
41.1067
 30
0.0000
  0
SEQEND
  8
0
  0
CIRCLE
  8
20
 10
41.3900
 20
42.5100
 30
0.0000
 40
1.6000
  0
INSERT
  8
17
  2
ROUNDP
 10
46.3300
 20
40.7000
 30
0.0000
 41
2.1844
 42
2.1844
 43
1.0000
 50
270.0000
  0
INSERT
  8
17
  2
ROUNDP
 10
46.3300
 20
40.7000
 30
0.0000
 41
2.1844
 42
2.1844
 43
1.0000
 50
270.0000
  0
CIRCLE
  8
44
 10
46.3300
 20
40.7000
 30
0.0000
 40
0.6000
  0
INSERT
  8
17
  2
ROUNDP
 10
46.3300
 20
38.1600
 30
0.0000
 41
2.1844
 42
2.1844
 43
1.0000
 50
270.0000
  0
INSERT
  8
17
  2
ROUNDP
 10
46.3300
 20
38.1600
 30
0.0000
 41
2.1844
 42
2.1844
 43
1.0000
 50
270.0000
  0
CIRCLE
  8
44
 10
46.3300
 20
38.1600
 30
0.0000
 40
0.6000
  0
INSERT
  8
17
  2
ROUNDP
 10
46.3300
 20
35.6200
 30
0.0000
 41
2.1844
 42
2.1844
 43
1.0000
 50
270.0000
  0
INSERT
  8
17
  2
ROUNDP
 10
46.3300
 20
35.6200
 30
0.0000
 41
2.1844
 42
2.1844
 43
1.0000
 50
270.0000
  0
CIRCLE
  8
44
 10
46.3300
 20
35.6200
 30
0.0000
 40
0.6000
  0
INSERT
  8
17
  2
ROUNDP
 10
46.3300
 20
33.0800
 30
0.0000
 41
2.1844
 42
2.1844
 43
1.0000
 50
270.0000
  0
INSERT
  8
17
  2
ROUNDP
 10
46.3300
 20
33.0800
 30
0.0000
 41
2.1844
 42
2.1844
 43
1.0000
 50
270.0000
  0
CIRCLE
  8
44
 10
46.3300
 20
33.0800
 30
0.0000
 40
0.6000
  0
INSERT
  8
17
  2
ROUNDP
 10
46.3300
 20
30.5400
 30
0.0000
 41
2.1844
 42
2.1844
 43
1.0000
 50
270.0000
  0
INSERT
  8
17
  2
ROUNDP
 10
46.3300
 20
30.5400
 30
0.0000
 41
2.1844
 42
2.1844
 43
1.0000
 50
270.0000
  0
CIRCLE
  8
44
 10
46.3300
 20
30.5400
 30
0.0000
 40
0.6000
  0
INSERT
  8
17
  2
ROUNDP
 10
46.3300
 20
28.0000
 30
0.0000
 41
2.1844
 42
2.1844
 43
1.0000
 50
270.0000
  0
INSERT
  8
17
  2
ROUNDP
 10
46.3300
 20
28.0000
 30
0.0000
 41
2.1844
 42
2.1844
 43
1.0000
 50
270.0000
  0
CIRCLE
  8
44
 10
46.3300
 20
28.0000
 30
0.0000
 40
0.6000
  0
INSERT
  8
17
  2
ROUNDP
 10
46.3300
 20
25.4600
 30
0.0000
 41
2.1844
 42
2.1844
 43
1.0000
 50
270.0000
  0
INSERT
  8
17
  2
ROUNDP
 10
46.3300
 20
25.4600
 30
0.0000
 41
2.1844
 42
2.1844
 43
1.0000
 50
270.0000
  0
CIRCLE
  8
44
 10
46.3300
 20
25.4600
 30
0.0000
 40
0.6000
  0
INSERT
  8
17
  2
ROUNDP
 10
46.3300
 20
22.9200
 30
0.0000
 41
2.1844
 42
2.1844
 43
1.0000
 50
270.0000
  0
INSERT
  8
17
  2
ROUNDP
 10
46.3300
 20
22.9200
 30
0.0000
 41
2.1844
 42
2.1844
 43
1.0000
 50
270.0000
  0
CIRCLE
  8
44
 10
46.3300
 20
22.9200
 30
0.0000
 40
0.6000
  0
INSERT
  8
17
  2
ROUNDP
 10
46.3300
 20
20.3800
 30
0.0000
 41
2.1844
 42
2.1844
 43
1.0000
 50
270.0000
  0
INSERT
  8
17
  2
ROUNDP
 10
46.3300
 20
20.3800
 30
0.0000
 41
2.1844
 42
2.1844
 43
1.0000
 50
270.0000
  0
CIRCLE
  8
44
 10
46.3300
 20
20.3800
 30
0.0000
 40
0.6000
  0
INSERT
  8
17
  2
ROUNDP
 10
46.3300
 20
17.8400
 30
0.0000
 41
2.1844
 42
2.1844
 43
1.0000
 50
270.0000
  0
INSERT
  8
17
  2
ROUNDP
 10
46.3300
 20
17.8400
 30
0.0000
 41
2.1844
 42
2.1844
 43
1.0000
 50
270.0000
  0
CIRCLE
  8
44
 10
46.3300
 20
17.8400
 30
0.0000
 40
0.6000
  0
INSERT
  8
17
  2
ROUNDP
 10
46.3300
 20
15.3000
 30
0.0000
 41
2.1844
 42
2.1844
 43
1.0000
 50
270.0000
  0
INSERT
  8
17
  2
ROUNDP
 10
46.3300
 20
15.3000
 30
0.0000
 41
2.1844
 42
2.1844
 43
1.0000
 50
270.0000
  0
CIRCLE
  8
44
 10
46.3300
 20
15.3000
 30
0.0000
 40
0.6000
  0
INSERT
  8
17
  2
ROUNDP
 10
46.3300
 20
12.7600
 30
0.0000
 41
2.1844
 42
2.1844
 43
1.0000
 50
270.0000
  0
INSERT
  8
17
  2
ROUNDP
 10
46.3300
 20
12.7600
 30
0.0000
 41
2.1844
 42
2.1844
 43
1.0000
 50
270.0000
  0
CIRCLE
  8
44
 10
46.3300
 20
12.7600
 30
0.0000
 40
0.6000
  0
INSERT
  8
17
  2
ROUNDP
 10
46.3300
 20
10.2200
 30
0.0000
 41
2.1844
 42
2.1844
 43
1.0000
 50
270.0000
  0
INSERT
  8
17
  2
ROUNDP
 10
46.3300
 20
10.2200
 30
0.0000
 41
2.1844
 42
2.1844
 43
1.0000
 50
270.0000
  0
CIRCLE
  8
44
 10
46.3300
 20
10.2200
 30
0.0000
 40
0.6000
  0
INSERT
  8
17
  2
SQUAREP
 10
46.3300
 20
7.6800
 30
0.0000
 41
2.1844
 42
2.1844
 43
1.0000
 50
270.0000
  0
INSERT
  8
17
  2
SQUAREP
 10
46.3300
 20
7.6800
 30
0.0000
 41
2.1844
 42
2.1844
 43
1.0000
 50
270.0000
  0
CIRCLE
  8
44
 10
46.3300
 20
7.6800
 30
0.0000
 40
0.6000
  0
INSERT
  8
17
  2
SQUAREP
 10
40.5100
 20
32.6800
 30
0.0000
 41
1.7780
 42
1.7780
 43
1.0000
 50
0.0000
  0
INSERT
  8
17
  2
SQUAREP
 10
40.5100
 20
32.6800
 30
0.0000
 41
1.7780
 42
1.7780
 43
1.0000
 50
0.0000
  0
CIRCLE
  8
44
 10
40.5100
 20
32.6800
 30
0.0000
 40
0.5000
  0
INSERT
  8
17
  2
ROUNDP
 10
40.5100
 20
30.6800
 30
0.0000
 41
1.7780
 42
1.7780
 43
1.0000
 50
0.0000
  0
INSERT
  8
17
  2
ROUNDP
 10
40.5100
 20
30.6800
 30
0.0000
 41
1.7780
 42
1.7780
 43
1.0000
 50
0.0000
  0
CIRCLE
  8
44
 10
40.5100
 20
30.6800
 30
0.0000
 40
0.5000
  0
INSERT
  8
17
  2
ROUNDP
 10
40.5100
 20
28.6800
 30
0.0000
 41
1.7780
 42
1.7780
 43
1.0000
 50
0.0000
  0
INSERT
  8
17
  2
ROUNDP
 10
40.5100
 20
28.6800
 30
0.0000
 41
1.7780
 42
1.7780
 43
1.0000
 50
0.0000
  0
CIRCLE
  8
44
 10
40.5100
 20
28.6800
 30
0.0000
 40
0.5000
  0
INSERT
  8
17
  2
ROUNDP
 10
40.5100
 20
26.6800
 30
0.0000
 41
1.7780
 42
1.7780
 43
1.0000
 50
0.0000
  0
INSERT
  8
17
  2
ROUNDP
 10
40.5100
 20
26.6800
 30
0.0000
 41
1.7780
 42
1.7780
 43
1.0000
 50
0.0000
  0
CIRCLE
  8
44
 10
40.5100
 20
26.6800
 30
0.0000
 40
0.5000
  0
INSERT
  8
17
  2
ROUNDP
 10
2.6600
 20
35.6900
 30
0.0000
 41
1.3080
 42
1.3080
 43
1.0000
 50
0.0000
  0
INSERT
  8
17
  2
ROUNDP
 10
2.6600
 20
35.6900
 30
0.0000
 41
1.3080
 42
1.3080
 43
1.0000
 50
0.0000
  0
CIRCLE
  8
44
 10
2.6600
 20
35.6900
 30
0.0000
 40
0.4000
  0
INSERT
  8
17
  2
SQUAREP
 10
2.6600
 20
33.0900
 30
0.0000
 41
1.3080
 42
1.3080
 43
1.0000
 50
0.0000
  0
INSERT
  8
17
  2
SQUAREP
 10
2.6600
 20
33.0900
 30
0.0000
 41
1.3080
 42
1.3080
 43
1.0000
 50
0.0000
  0
CIRCLE
  8
44
 10
2.6600
 20
33.0900
 30
0.0000
 40
0.4000
  0
CIRCLE
  8
20
 10
28.8000
 20
4.8100
 30
0.0000
 40
0.3000
  0
CIRCLE
  8
20
 10
33.4500
 20
4.8600
 30
0.0000
 40
0.3000
  0
INSERT
  8
17
  2
LONGP100
 10
13.1700
 20
9.4000
 30
0.0000
 41
1.5080
 42
1.5080
 43
1.0000
 50
90.0000
  0
INSERT
  8
17
  2
LONGP100
 10
13.1700
 20
9.4000
 30
0.0000
 41
1.5080
 42
1.5080
 43
1.0000
 50
90.0000
  0
CIRCLE
  8
44
 10
13.1700
 20
9.4000
 30
0.0000
 40
0.5000
  0
INSERT
  8
17
  2
LONGP100
 10
15.6700
 20
9.4000
 30
0.0000
 41
1.5080
 42
1.5080
 43
1.0000
 50
90.0000
  0
INSERT
  8
17
  2
LONGP100
 10
15.6700
 20
9.4000
 30
0.0000
 41
1.5080
 42
1.5080
 43
1.0000
 50
90.0000
  0
CIRCLE
  8
44
 10
15.6700
 20
9.4000
 30
0.0000
 40
0.5000
  0
INSERT
  8
17
  2
LONGP100
 10
17.6700
 20
9.4000
 30
0.0000
 41
1.5080
 42
1.5080
 43
1.0000
 50
90.0000
  0
INSERT
  8
17
  2
LONGP100
 10
17.6700
 20
9.4000
 30
0.0000
 41
1.5080
 42
1.5080
 43
1.0000
 50
90.0000
  0
CIRCLE
  8
44
 10
17.6700
 20
9.4000
 30
0.0000
 40
0.5000
  0
INSERT
  8
17
  2
LONGP100
 10
20.1700
 20
9.4000
 30
0.0000
 41
1.5080
 42
1.5080
 43
1.0000
 50
90.0000
  0
INSERT
  8
17
  2
LONGP100
 10
20.1700
 20
9.4000
 30
0.0000
 41
1.5080
 42
1.5080
 43
1.0000
 50
90.0000
  0
CIRCLE
  8
44
 10
20.1700
 20
9.4000
 30
0.0000
 40
0.5000
  0
INSERT
  8
17
  2
ROUNDP
 10
10.1000
 20
6.6900
 30
0.0000
 41
2.5400
 42
2.5400
 43
1.0000
 50
0.0000
  0
INSERT
  8
17
  2
ROUNDP
 10
10.1000
 20
6.6900
 30
0.0000
 41
2.5400
 42
2.5400
 43
1.0000
 50
0.0000
  0
CIRCLE
  8
44
 10
10.1000
 20
6.6900
 30
0.0000
 40
0.6500
  0
INSERT
  8
17
  2
ROUNDP
 10
23.2400
 20
6.6900
 30
0.0000
 41
2.5400
 42
2.5400
 43
1.0000
 50
0.0000
  0
INSERT
  8
17
  2
ROUNDP
 10
23.2400
 20
6.6900
 30
0.0000
 41
2.5400
 42
2.5400
 43
1.0000
 50
0.0000
  0
CIRCLE
  8
44
 10
23.2400
 20
6.6900
 30
0.0000
 40
0.6500
  0
INSERT
  8
17
  2
OCTAGONP
 10
8.3400
 20
41.1000
 30
0.0000
 41
1.5240
 42
1.5240
 43
1.0000
 50
0.0000
  0
INSERT
  8
17
  2
OCTAGONP
 10
8.3400
 20
41.1000
 30
0.0000
 41
1.5240
 42
1.5240
 43
1.0000
 50
0.0000
  0
CIRCLE
  8
44
 10
8.3400
 20
41.1000
 30
0.0000
 40
0.5080
  0
INSERT
  8
17
  2
OCTAGONP
 10
3.2600
 20
41.1000
 30
0.0000
 41
1.5240
 42
1.5240
 43
1.0000
 50
0.0000
  0
INSERT
  8
17
  2
OCTAGONP
 10
3.2600
 20
41.1000
 30
0.0000
 41
1.5240
 42
1.5240
 43
1.0000
 50
0.0000
  0
CIRCLE
  8
44
 10
3.2600
 20
41.1000
 30
0.0000
 40
0.5080
  0
INSERT
  8
17
  2
OCTAGONP
 10
8.3400
 20
43.6400
 30
0.0000
 41
1.5240
 42
1.5240
 43
1.0000
 50
0.0000
  0
INSERT
  8
17
  2
OCTAGONP
 10
8.3400
 20
43.6400
 30
0.0000
 41
1.5240
 42
1.5240
 43
1.0000
 50
0.0000
  0
CIRCLE
  8
44
 10
8.3400
 20
43.6400
 30
0.0000
 40
0.5080
  0
INSERT
  8
17
  2
OCTAGONP
 10
5.8000
 20
41.1000
 30
0.0000
 41
1.5240
 42
1.5240
 43
1.0000
 50
0.0000
  0
INSERT
  8
17
  2
OCTAGONP
 10
5.8000
 20
41.1000
 30
0.0000
 41
1.5240
 42
1.5240
 43
1.0000
 50
0.0000
  0
CIRCLE
  8
44
 10
5.8000
 20
41.1000
 30
0.0000
 40
0.5080
  0
INSERT
  8
17
  2
OCTAGONP
 10
5.8000
 20
43.6400
 30
0.0000
 41
1.5240
 42
1.5240
 43
1.0000
 50
0.0000
  0
INSERT
  8
17
  2
OCTAGONP
 10
5.8000
 20
43.6400
 30
0.0000
 41
1.5240
 42
1.5240
 43
1.0000
 50
0.0000
  0
CIRCLE
  8
44
 10
5.8000
 20
43.6400
 30
0.0000
 40
0.5080
  0
INSERT
  8
17
  2
OCTAGONP
 10
3.2600
 20
43.6400
 30
0.0000
 41
1.5240
 42
1.5240
 43
1.0000
 50
0.0000
  0
INSERT
  8
17
  2
OCTAGONP
 10
3.2600
 20
43.6400
 30
0.0000
 41
1.5240
 42
1.5240
 43
1.0000
 50
0.0000
  0
CIRCLE
  8
44
 10
3.2600
 20
43.6400
 30
0.0000
 40
0.5080
  0
INSERT
  8
17
  2
SQUAREP
 10
4.4100
 20
3.8000
 30
0.0000
 41
1.9812
 42
1.9812
 43
1.0000
 50
90.0000
  0
INSERT
  8
17
  2
SQUAREP
 10
4.4100
 20
3.8000
 30
0.0000
 41
1.9812
 42
1.9812
 43
1.0000
 50
90.0000
  0
CIRCLE
  8
44
 10
4.4100
 20
3.8000
 30
0.0000
 40
0.6604
  0
INSERT
  8
17
  2
SQUAREP
 10
4.4100
 20
13.9600
 30
0.0000
 41
1.9812
 42
1.9812
 43
1.0000
 50
90.0000
  0
INSERT
  8
17
  2
SQUAREP
 10
4.4100
 20
13.9600
 30
0.0000
 41
1.9812
 42
1.9812
 43
1.0000
 50
90.0000
  0
CIRCLE
  8
44
 10
4.4100
 20
13.9600
 30
0.0000
 40
0.6604
  0
INSERT
  8
17
  2
SQUAREP
 10
40.2600
 20
3.7000
 30
0.0000
 41
1.9812
 42
1.9812
 43
1.0000
 50
90.0000
  0
INSERT
  8
17
  2
SQUAREP
 10
40.2600
 20
3.7000
 30
0.0000
 41
1.9812
 42
1.9812
 43
1.0000
 50
90.0000
  0
CIRCLE
  8
44
 10
40.2600
 20
3.7000
 30
0.0000
 40
0.6604
  0
INSERT
  8
17
  2
SQUAREP
 10
40.2600
 20
13.8600
 30
0.0000
 41
1.9812
 42
1.9812
 43
1.0000
 50
90.0000
  0
INSERT
  8
17
  2
SQUAREP
 10
40.2600
 20
13.8600
 30
0.0000
 41
1.9812
 42
1.9812
 43
1.0000
 50
90.0000
  0
CIRCLE
  8
44
 10
40.2600
 20
13.8600
 30
0.0000
 40
0.6604
  0
ENDSEC
  0
EOF
