G75*
%MOIN*%
%OFA0B0*%
%FSLAX25Y25*%
%IPPOS*%
%LPD*%
%AMOC8*
5,1,8,0,0,1.08239X$1,22.5*
%
%ADD10C,0.01600*%
%ADD11C,0.00200*%
%ADD12C,0.00300*%
%ADD13C,0.00000*%
%ADD14C,0.10000*%
%ADD15C,0.00500*%
D10*
X0123337Y0016382D02*
X0123337Y0213232D01*
X0320187Y0213232D01*
X0320187Y0016382D01*
X0123337Y0016382D01*
D11*
X0127351Y0191679D02*
X0128452Y0192413D01*
X0127351Y0193147D01*
X0128452Y0193881D02*
X0128452Y0191679D01*
X0129194Y0191679D02*
X0130295Y0191679D01*
X0130661Y0192046D01*
X0130661Y0192780D01*
X0130295Y0193147D01*
X0129194Y0193147D01*
X0131403Y0192780D02*
X0131403Y0192413D01*
X0132871Y0192413D01*
X0132871Y0192046D02*
X0132871Y0192780D01*
X0132504Y0193147D01*
X0131770Y0193147D01*
X0131403Y0192780D01*
X0131770Y0191679D02*
X0132504Y0191679D01*
X0132871Y0192046D01*
X0133613Y0191679D02*
X0133613Y0192780D01*
X0133980Y0193147D01*
X0134714Y0193147D01*
X0135081Y0192780D01*
X0135823Y0193147D02*
X0136924Y0193147D01*
X0137291Y0192780D01*
X0137291Y0192046D01*
X0136924Y0191679D01*
X0135823Y0191679D01*
X0135081Y0191679D02*
X0135081Y0193881D01*
X0140243Y0192780D02*
X0140243Y0191679D01*
X0140243Y0192780D02*
X0140610Y0193147D01*
X0141711Y0193147D01*
X0141711Y0191679D01*
X0142450Y0191679D02*
X0143184Y0191679D01*
X0142817Y0191679D02*
X0142817Y0193147D01*
X0143184Y0193147D01*
X0142817Y0193881D02*
X0142817Y0194248D01*
X0146136Y0193147D02*
X0146136Y0191312D01*
X0146503Y0190945D01*
X0146870Y0190945D01*
X0147237Y0191679D02*
X0146136Y0191679D01*
X0147237Y0191679D02*
X0147604Y0192046D01*
X0147604Y0193147D01*
X0148343Y0193147D02*
X0149077Y0193147D01*
X0148710Y0193514D02*
X0148710Y0192046D01*
X0148343Y0191679D01*
X0149816Y0191679D02*
X0150550Y0191679D01*
X0150183Y0191679D02*
X0150183Y0193147D01*
X0150550Y0193147D01*
X0151292Y0193147D02*
X0152393Y0193147D01*
X0152760Y0192780D01*
X0152760Y0192046D01*
X0152393Y0191679D01*
X0151292Y0191679D01*
X0151292Y0193881D01*
X0150183Y0193881D02*
X0150183Y0194248D01*
X0153867Y0194248D02*
X0153867Y0193881D01*
X0153867Y0193147D02*
X0153867Y0191679D01*
X0154234Y0191679D02*
X0153500Y0191679D01*
X0153867Y0193147D02*
X0154234Y0193147D01*
X0154976Y0192780D02*
X0154976Y0192046D01*
X0155342Y0191679D01*
X0156443Y0191679D01*
X0156443Y0190945D02*
X0156443Y0193147D01*
X0155342Y0193147D01*
X0154976Y0192780D01*
X0157185Y0193147D02*
X0157185Y0191679D01*
X0158286Y0191679D01*
X0158653Y0192046D01*
X0158653Y0193147D01*
X0159393Y0193147D02*
X0160127Y0193147D01*
X0159760Y0193514D02*
X0159760Y0192046D01*
X0159393Y0191679D01*
X0160869Y0192046D02*
X0161235Y0192413D01*
X0161969Y0192413D01*
X0162336Y0192780D01*
X0161969Y0193147D01*
X0160869Y0193147D01*
X0160869Y0192046D02*
X0161235Y0191679D01*
X0162336Y0191679D01*
X0165288Y0191679D02*
X0166389Y0191679D01*
X0166756Y0192046D01*
X0166756Y0193147D01*
X0167498Y0192780D02*
X0167498Y0191679D01*
X0168232Y0191679D02*
X0168232Y0192780D01*
X0167865Y0193147D01*
X0167498Y0192780D01*
X0168232Y0192780D02*
X0168599Y0193147D01*
X0168966Y0193147D01*
X0168966Y0191679D01*
X0171918Y0191679D02*
X0173019Y0191679D01*
X0173386Y0192046D01*
X0173386Y0192780D01*
X0173019Y0193147D01*
X0171918Y0193147D01*
X0171918Y0191312D01*
X0172285Y0190945D01*
X0172652Y0190945D01*
X0174128Y0191679D02*
X0174128Y0192780D01*
X0174495Y0193147D01*
X0175596Y0193147D01*
X0175596Y0191679D01*
X0176335Y0191679D02*
X0177069Y0191679D01*
X0176702Y0191679D02*
X0176702Y0193147D01*
X0177069Y0193147D01*
X0176702Y0193881D02*
X0176702Y0194248D01*
X0175964Y0195279D02*
X0175964Y0197481D01*
X0174496Y0197481D01*
X0173754Y0196747D02*
X0173754Y0195279D01*
X0173754Y0196013D02*
X0173020Y0196747D01*
X0172653Y0196747D01*
X0171546Y0196747D02*
X0170812Y0196747D01*
X0170445Y0196380D01*
X0170445Y0195279D01*
X0171546Y0195279D01*
X0171913Y0195646D01*
X0171546Y0196013D01*
X0170445Y0196013D01*
X0169703Y0196747D02*
X0168602Y0196747D01*
X0168235Y0196380D01*
X0168235Y0195279D01*
X0167493Y0195279D02*
X0167493Y0197481D01*
X0166392Y0196747D02*
X0167493Y0196013D01*
X0166392Y0195279D01*
X0165288Y0193147D02*
X0165288Y0191312D01*
X0165655Y0190945D01*
X0166022Y0190945D01*
X0162707Y0195279D02*
X0162707Y0196380D01*
X0161973Y0197114D01*
X0161973Y0197481D01*
X0162707Y0196380D02*
X0163441Y0197114D01*
X0163441Y0197481D01*
X0161231Y0196380D02*
X0160864Y0196747D01*
X0160131Y0196747D01*
X0159764Y0196380D01*
X0159764Y0196013D01*
X0161231Y0196013D01*
X0161231Y0195646D02*
X0161231Y0196380D01*
X0161231Y0195646D02*
X0160864Y0195279D01*
X0160131Y0195279D01*
X0159022Y0195646D02*
X0159022Y0196380D01*
X0158655Y0196747D01*
X0157921Y0196747D01*
X0157554Y0196380D01*
X0157554Y0196013D01*
X0159022Y0196013D01*
X0159022Y0195646D02*
X0158655Y0195279D01*
X0157921Y0195279D01*
X0169703Y0195279D02*
X0169703Y0196747D01*
X0175230Y0196380D02*
X0175964Y0196380D01*
X0178913Y0195646D02*
X0179280Y0195646D01*
X0179280Y0195279D01*
X0178913Y0195279D01*
X0178913Y0195646D01*
X0178913Y0195279D02*
X0179647Y0194545D01*
X0180389Y0195279D02*
X0180389Y0196380D01*
X0180756Y0196747D01*
X0181490Y0196747D01*
X0181857Y0196380D01*
X0182599Y0196380D02*
X0182599Y0195279D01*
X0183700Y0195279D01*
X0184067Y0195646D01*
X0183700Y0196013D01*
X0182599Y0196013D01*
X0182599Y0196380D02*
X0182966Y0196747D01*
X0183700Y0196747D01*
X0185173Y0196747D02*
X0185173Y0195279D01*
X0185540Y0195279D02*
X0184806Y0195279D01*
X0186282Y0195279D02*
X0186282Y0196380D01*
X0186649Y0196747D01*
X0187016Y0196380D01*
X0187016Y0195279D01*
X0187750Y0195279D02*
X0187750Y0196747D01*
X0187383Y0196747D01*
X0187016Y0196380D01*
X0188492Y0196380D02*
X0188492Y0196013D01*
X0189960Y0196013D01*
X0189960Y0196380D02*
X0189593Y0196747D01*
X0188859Y0196747D01*
X0188492Y0196380D01*
X0188859Y0195279D02*
X0189593Y0195279D01*
X0189960Y0195646D01*
X0189960Y0196380D01*
X0190701Y0196747D02*
X0191068Y0196747D01*
X0191801Y0196013D01*
X0191801Y0195279D02*
X0191801Y0196747D01*
X0192543Y0196380D02*
X0192543Y0196013D01*
X0194011Y0196013D01*
X0194011Y0196380D02*
X0193644Y0196747D01*
X0192910Y0196747D01*
X0192543Y0196380D01*
X0192910Y0195279D02*
X0193644Y0195279D01*
X0194011Y0195646D01*
X0194011Y0196380D01*
X0194753Y0197481D02*
X0195487Y0197481D01*
X0195120Y0197481D02*
X0195120Y0195646D01*
X0195487Y0195279D01*
X0195854Y0195279D01*
X0196221Y0195646D01*
X0197332Y0193147D02*
X0198432Y0193147D01*
X0198799Y0192780D01*
X0198432Y0192413D01*
X0197699Y0192413D01*
X0197332Y0192046D01*
X0197699Y0191679D01*
X0198799Y0191679D01*
X0199541Y0191679D02*
X0199541Y0192780D01*
X0199908Y0193147D01*
X0200642Y0193147D01*
X0200642Y0192413D02*
X0199541Y0192413D01*
X0199541Y0191679D02*
X0200642Y0191679D01*
X0201009Y0192046D01*
X0200642Y0192413D01*
X0201751Y0192413D02*
X0203219Y0192413D01*
X0203219Y0192046D02*
X0203219Y0192780D01*
X0202852Y0193147D01*
X0202118Y0193147D01*
X0201751Y0192780D01*
X0201751Y0192413D01*
X0202118Y0191679D02*
X0202852Y0191679D01*
X0203219Y0192046D01*
X0203961Y0191679D02*
X0205062Y0191679D01*
X0205429Y0192046D01*
X0205429Y0192780D01*
X0205062Y0193147D01*
X0203961Y0193147D01*
X0203961Y0193881D02*
X0203961Y0191679D01*
X0206168Y0191679D02*
X0206902Y0191679D01*
X0206535Y0191679D02*
X0206535Y0193147D01*
X0206902Y0193147D01*
X0206535Y0193881D02*
X0206535Y0194248D01*
X0206904Y0195279D02*
X0206904Y0197114D01*
X0206537Y0197481D01*
X0206537Y0196380D02*
X0207271Y0196380D01*
X0208011Y0196747D02*
X0208378Y0196747D01*
X0209112Y0196013D01*
X0209112Y0195279D02*
X0209112Y0196747D01*
X0209854Y0196380D02*
X0209854Y0196013D01*
X0211322Y0196013D01*
X0211322Y0196380D02*
X0210955Y0196747D01*
X0210221Y0196747D01*
X0209854Y0196380D01*
X0210221Y0195279D02*
X0210955Y0195279D01*
X0211322Y0195646D01*
X0211322Y0196380D01*
X0212061Y0196747D02*
X0212795Y0196747D01*
X0212428Y0197114D02*
X0212428Y0195646D01*
X0212061Y0195279D01*
X0213537Y0195646D02*
X0213904Y0196013D01*
X0214638Y0196013D01*
X0215005Y0196380D01*
X0214638Y0196747D01*
X0213537Y0196747D01*
X0213537Y0195646D02*
X0213904Y0195279D01*
X0215005Y0195279D01*
X0215747Y0196013D02*
X0217215Y0196013D01*
X0217215Y0196380D02*
X0216848Y0196747D01*
X0216114Y0196747D01*
X0215747Y0196380D01*
X0215747Y0196013D01*
X0216114Y0195279D02*
X0216848Y0195279D01*
X0217215Y0195646D01*
X0217215Y0196380D01*
X0217957Y0195279D02*
X0217957Y0197481D01*
X0219425Y0197481D02*
X0219425Y0195279D01*
X0218691Y0196013D01*
X0217957Y0195279D01*
X0218321Y0194248D02*
X0218321Y0193881D01*
X0218321Y0193147D02*
X0218321Y0191679D01*
X0218688Y0191679D02*
X0217954Y0191679D01*
X0217215Y0192046D02*
X0216848Y0191679D01*
X0216114Y0191679D01*
X0215747Y0192046D01*
X0215747Y0192780D01*
X0216114Y0193147D01*
X0216848Y0193147D01*
X0217215Y0192780D01*
X0217215Y0192046D01*
X0218321Y0193147D02*
X0218688Y0193147D01*
X0219428Y0193147D02*
X0220162Y0193147D01*
X0219795Y0193514D02*
X0219795Y0192046D01*
X0219428Y0191679D01*
X0220904Y0192046D02*
X0221271Y0192413D01*
X0222005Y0192413D01*
X0222371Y0192780D01*
X0222005Y0193147D01*
X0220904Y0193147D01*
X0220904Y0192046D02*
X0221271Y0191679D01*
X0222371Y0191679D01*
X0223113Y0192413D02*
X0223113Y0192780D01*
X0223480Y0193147D01*
X0224214Y0193147D01*
X0224581Y0192780D01*
X0224581Y0192046D01*
X0224214Y0191679D01*
X0223480Y0191679D01*
X0223113Y0192413D02*
X0224581Y0192413D01*
X0225323Y0193147D02*
X0225323Y0191312D01*
X0225690Y0190945D01*
X0226057Y0190945D01*
X0226424Y0191679D02*
X0225323Y0191679D01*
X0226424Y0191679D02*
X0226791Y0192046D01*
X0226791Y0192780D01*
X0226424Y0193147D01*
X0225323Y0193147D01*
X0225322Y0195279D02*
X0224955Y0195646D01*
X0224955Y0196380D01*
X0225322Y0196747D01*
X0226056Y0196747D01*
X0226423Y0196380D01*
X0226423Y0195646D01*
X0226056Y0195279D01*
X0225322Y0195279D01*
X0223846Y0195279D02*
X0223846Y0197114D01*
X0223479Y0197481D01*
X0223479Y0196380D02*
X0224213Y0196380D01*
X0222740Y0195646D02*
X0222373Y0195646D01*
X0222373Y0195279D01*
X0222740Y0195279D01*
X0222740Y0195646D01*
X0227164Y0196747D02*
X0227531Y0196747D01*
X0228265Y0196013D01*
X0228265Y0195279D02*
X0228265Y0196747D01*
X0229006Y0197114D02*
X0229006Y0196380D01*
X0229373Y0196013D01*
X0230474Y0196013D01*
X0230474Y0195279D02*
X0230474Y0197481D01*
X0229373Y0197481D01*
X0229006Y0197114D01*
X0228634Y0193147D02*
X0229001Y0192780D01*
X0229001Y0192046D01*
X0228634Y0191679D01*
X0227533Y0191679D01*
X0227533Y0191312D02*
X0227533Y0193147D01*
X0228634Y0193147D01*
X0229743Y0193147D02*
X0229743Y0191679D01*
X0230844Y0191679D01*
X0231211Y0192046D01*
X0231211Y0193147D01*
X0231953Y0193147D02*
X0233054Y0193147D01*
X0233421Y0192780D01*
X0233054Y0192413D01*
X0232320Y0192413D01*
X0231953Y0192046D01*
X0232320Y0191679D01*
X0233421Y0191679D01*
X0236373Y0191679D02*
X0236373Y0192780D01*
X0236740Y0193147D01*
X0237841Y0193147D01*
X0237841Y0191679D01*
X0238583Y0191679D02*
X0239684Y0191679D01*
X0240051Y0192046D01*
X0240051Y0192780D01*
X0239684Y0193147D01*
X0238583Y0193147D01*
X0238583Y0191312D01*
X0238950Y0190945D01*
X0239317Y0190945D01*
X0240790Y0191679D02*
X0241524Y0191679D01*
X0241157Y0191679D02*
X0241157Y0193147D01*
X0241524Y0193147D01*
X0242266Y0193147D02*
X0243367Y0193147D01*
X0243734Y0192780D01*
X0243367Y0192413D01*
X0242633Y0192413D01*
X0242266Y0192046D01*
X0242633Y0191679D01*
X0243734Y0191679D01*
X0244476Y0192413D02*
X0245944Y0192413D01*
X0245944Y0192046D02*
X0245944Y0192780D01*
X0245577Y0193147D01*
X0244843Y0193147D01*
X0244476Y0192780D01*
X0244476Y0192413D01*
X0244843Y0191679D02*
X0245577Y0191679D01*
X0245944Y0192046D01*
X0246686Y0191679D02*
X0247786Y0191679D01*
X0248153Y0192046D01*
X0248153Y0192780D01*
X0247786Y0193147D01*
X0246686Y0193147D01*
X0246686Y0193881D02*
X0246686Y0191679D01*
X0251104Y0193147D02*
X0251471Y0193147D01*
X0252205Y0192413D01*
X0252205Y0191679D02*
X0252205Y0193147D01*
X0252947Y0192780D02*
X0252947Y0192046D01*
X0253314Y0191679D01*
X0254048Y0191679D01*
X0254415Y0192046D01*
X0254415Y0192780D01*
X0254048Y0193147D01*
X0253314Y0193147D01*
X0252947Y0192780D01*
X0255154Y0192780D02*
X0255888Y0192780D01*
X0255521Y0193514D02*
X0255521Y0191679D01*
X0255521Y0193514D02*
X0255154Y0193881D01*
X0255157Y0195279D02*
X0256258Y0195279D01*
X0256625Y0195646D01*
X0256258Y0196013D01*
X0255157Y0196013D01*
X0255157Y0196380D02*
X0255157Y0195279D01*
X0254415Y0195279D02*
X0253681Y0195279D01*
X0254048Y0195279D02*
X0254048Y0197481D01*
X0254415Y0197481D01*
X0255157Y0196380D02*
X0255524Y0196747D01*
X0256258Y0196747D01*
X0257731Y0196747D02*
X0257731Y0195279D01*
X0258098Y0195279D02*
X0257364Y0195279D01*
X0258840Y0195279D02*
X0259941Y0195279D01*
X0260308Y0195646D01*
X0260308Y0196380D01*
X0259941Y0196747D01*
X0258840Y0196747D01*
X0258098Y0196747D02*
X0257731Y0196747D01*
X0257731Y0197481D02*
X0257731Y0197848D01*
X0261050Y0196380D02*
X0261050Y0196013D01*
X0262518Y0196013D01*
X0262518Y0196380D02*
X0262151Y0196747D01*
X0261417Y0196747D01*
X0261050Y0196380D01*
X0261417Y0195279D02*
X0262151Y0195279D01*
X0262518Y0195646D01*
X0262518Y0196380D01*
X0263260Y0196380D02*
X0263260Y0195646D01*
X0263627Y0195279D01*
X0264728Y0195279D01*
X0264728Y0194545D02*
X0264728Y0196747D01*
X0263627Y0196747D01*
X0263260Y0196380D01*
X0265469Y0196747D02*
X0266570Y0196747D01*
X0266937Y0196380D01*
X0266570Y0196013D01*
X0265836Y0196013D01*
X0265469Y0195646D01*
X0265836Y0195279D01*
X0266937Y0195279D01*
X0266203Y0193881D02*
X0265469Y0193881D01*
X0265836Y0193881D02*
X0265836Y0192046D01*
X0266203Y0191679D01*
X0266570Y0191679D01*
X0266937Y0192046D01*
X0264728Y0192046D02*
X0264728Y0193147D01*
X0264728Y0192046D02*
X0264361Y0191679D01*
X0263260Y0191679D01*
X0263260Y0193147D01*
X0262151Y0193147D02*
X0261417Y0193147D01*
X0261050Y0192780D01*
X0261050Y0191679D01*
X0262151Y0191679D01*
X0262518Y0192046D01*
X0262151Y0192413D01*
X0261050Y0192413D01*
X0260308Y0191679D02*
X0260308Y0193147D01*
X0259207Y0193147D01*
X0258840Y0192780D01*
X0258840Y0191679D01*
X0250365Y0195646D02*
X0249998Y0195279D01*
X0250365Y0195646D02*
X0250365Y0197114D01*
X0250732Y0196747D02*
X0249998Y0196747D01*
X0249258Y0196380D02*
X0248891Y0196747D01*
X0248157Y0196747D01*
X0247790Y0196380D01*
X0247790Y0195279D01*
X0247048Y0195646D02*
X0246682Y0196013D01*
X0245581Y0196013D01*
X0245581Y0196380D02*
X0245581Y0195279D01*
X0246682Y0195279D01*
X0247048Y0195646D01*
X0246682Y0196747D02*
X0245948Y0196747D01*
X0245581Y0196380D01*
X0244839Y0196747D02*
X0243738Y0196747D01*
X0243371Y0196380D01*
X0243371Y0195279D01*
X0242629Y0195279D02*
X0242629Y0197481D01*
X0241528Y0196747D02*
X0242629Y0196013D01*
X0241528Y0195279D01*
X0240787Y0195279D02*
X0239686Y0195279D01*
X0239319Y0195646D01*
X0239686Y0196013D01*
X0240420Y0196013D01*
X0240787Y0196380D01*
X0240420Y0196747D01*
X0239319Y0196747D01*
X0236367Y0196747D02*
X0235633Y0196747D01*
X0236000Y0197114D02*
X0236000Y0195646D01*
X0235633Y0195279D01*
X0234894Y0195646D02*
X0234527Y0195279D01*
X0233793Y0195279D01*
X0233426Y0195646D01*
X0233426Y0196380D01*
X0233793Y0196747D01*
X0234527Y0196747D01*
X0234894Y0196380D01*
X0234894Y0195646D01*
X0241157Y0194248D02*
X0241157Y0193881D01*
X0244839Y0195279D02*
X0244839Y0196747D01*
X0249258Y0197481D02*
X0249258Y0195279D01*
X0228267Y0190945D02*
X0227900Y0190945D01*
X0227533Y0191312D01*
X0215005Y0191679D02*
X0215005Y0193147D01*
X0213904Y0193147D01*
X0213537Y0192780D01*
X0213537Y0191679D01*
X0212795Y0191679D02*
X0211694Y0191679D01*
X0211327Y0192046D01*
X0211694Y0192413D01*
X0212428Y0192413D01*
X0212795Y0192780D01*
X0212428Y0193147D01*
X0211327Y0193147D01*
X0210218Y0192046D02*
X0210218Y0191679D01*
X0209852Y0191679D01*
X0209852Y0192046D01*
X0210218Y0192046D01*
X0209852Y0191679D02*
X0210585Y0190945D01*
X0205797Y0195646D02*
X0205797Y0196380D01*
X0205430Y0196747D01*
X0204696Y0196747D01*
X0204329Y0196380D01*
X0204329Y0196013D01*
X0205797Y0196013D01*
X0205797Y0195646D02*
X0205430Y0195279D01*
X0204696Y0195279D01*
X0203588Y0195279D02*
X0202854Y0195279D01*
X0203221Y0195279D02*
X0203221Y0197481D01*
X0203588Y0197481D01*
X0202114Y0196380D02*
X0201747Y0196747D01*
X0200646Y0196747D01*
X0200646Y0197481D02*
X0200646Y0195279D01*
X0201747Y0195279D01*
X0202114Y0195646D01*
X0202114Y0196380D01*
X0199537Y0195646D02*
X0199537Y0195279D01*
X0199170Y0195279D01*
X0199170Y0195646D01*
X0199537Y0195646D01*
X0199170Y0195279D02*
X0199904Y0194545D01*
X0194013Y0193147D02*
X0193279Y0193147D01*
X0192912Y0192780D01*
X0192912Y0191679D01*
X0194013Y0191679D01*
X0194380Y0192046D01*
X0194013Y0192413D01*
X0192912Y0192413D01*
X0192170Y0193147D02*
X0191069Y0193147D01*
X0190702Y0192780D01*
X0190702Y0191679D01*
X0189960Y0192046D02*
X0189960Y0192780D01*
X0189593Y0193147D01*
X0188492Y0193147D01*
X0188492Y0193881D02*
X0188492Y0191679D01*
X0189593Y0191679D01*
X0189960Y0192046D01*
X0192170Y0191679D02*
X0192170Y0193147D01*
X0185540Y0193881D02*
X0185540Y0191679D01*
X0185540Y0192413D02*
X0184439Y0193147D01*
X0183699Y0192780D02*
X0183332Y0193147D01*
X0182598Y0193147D01*
X0182231Y0192780D01*
X0182231Y0192413D01*
X0183699Y0192413D01*
X0183699Y0192046D02*
X0183699Y0192780D01*
X0183699Y0192046D02*
X0183332Y0191679D01*
X0182598Y0191679D01*
X0181489Y0192046D02*
X0181489Y0192780D01*
X0181122Y0193147D01*
X0180388Y0193147D01*
X0180021Y0192780D01*
X0180021Y0192413D01*
X0181489Y0192413D01*
X0181489Y0192046D02*
X0181122Y0191679D01*
X0180388Y0191679D01*
X0179279Y0191679D02*
X0178178Y0191679D01*
X0177811Y0192046D01*
X0177811Y0192780D01*
X0178178Y0193147D01*
X0179279Y0193147D01*
X0179279Y0190945D01*
X0181857Y0195279D02*
X0181857Y0197481D01*
X0185173Y0197481D02*
X0185173Y0197848D01*
X0185173Y0196747D02*
X0185540Y0196747D01*
X0185540Y0192413D02*
X0184439Y0191679D01*
D12*
X0207026Y0081532D02*
X0207026Y0081049D01*
X0207026Y0080081D02*
X0207026Y0078146D01*
X0207510Y0078146D02*
X0206542Y0078146D01*
X0205545Y0078630D02*
X0205545Y0079597D01*
X0205061Y0080081D01*
X0204094Y0080081D01*
X0203610Y0079597D01*
X0203610Y0078630D01*
X0204094Y0078146D01*
X0205061Y0078146D01*
X0205545Y0078630D01*
X0207026Y0080081D02*
X0207510Y0080081D01*
X0208499Y0078630D02*
X0208499Y0078146D01*
X0208983Y0078146D01*
X0208983Y0078630D01*
X0208499Y0078630D01*
X0209994Y0078630D02*
X0209994Y0079597D01*
X0210478Y0080081D01*
X0211929Y0080081D01*
X0211929Y0081049D02*
X0211929Y0078146D01*
X0210478Y0078146D01*
X0209994Y0078630D01*
X0212941Y0078146D02*
X0212941Y0080081D01*
X0214876Y0080081D02*
X0214876Y0078630D01*
X0214392Y0078146D01*
X0212941Y0078146D01*
X0215887Y0078146D02*
X0215887Y0079597D01*
X0216371Y0080081D01*
X0217339Y0080081D01*
X0217822Y0079597D01*
X0218819Y0080081D02*
X0219787Y0080081D01*
X0219303Y0080565D02*
X0219303Y0078630D01*
X0218819Y0078146D01*
X0217822Y0078146D02*
X0217822Y0081049D01*
X0221267Y0081049D02*
X0221267Y0081532D01*
X0221267Y0080081D02*
X0221267Y0078146D01*
X0220784Y0078146D02*
X0221751Y0078146D01*
X0222763Y0078146D02*
X0224214Y0078146D01*
X0224698Y0078630D01*
X0224698Y0079597D01*
X0224214Y0080081D01*
X0222763Y0080081D01*
X0222763Y0077662D01*
X0223246Y0077179D01*
X0223730Y0077179D01*
X0225687Y0078146D02*
X0226171Y0078146D01*
X0226171Y0078630D01*
X0225687Y0078630D01*
X0225687Y0078146D01*
X0227182Y0078146D02*
X0227182Y0079597D01*
X0227666Y0080081D01*
X0228634Y0080081D01*
X0229117Y0079597D01*
X0230114Y0080081D02*
X0231082Y0080081D01*
X0230598Y0080565D02*
X0230598Y0078630D01*
X0230114Y0078146D01*
X0229117Y0078146D02*
X0229117Y0081049D01*
X0232562Y0081049D02*
X0232562Y0081532D01*
X0232562Y0080081D02*
X0232562Y0078146D01*
X0232079Y0078146D02*
X0233046Y0078146D01*
X0234043Y0077662D02*
X0234043Y0080081D01*
X0234043Y0081049D02*
X0234043Y0081532D01*
X0233046Y0080081D02*
X0232562Y0080081D01*
X0234043Y0077662D02*
X0234527Y0077179D01*
X0235010Y0077179D01*
X0236022Y0078146D02*
X0236022Y0079597D01*
X0236506Y0080081D01*
X0237473Y0080081D01*
X0237473Y0079114D02*
X0236022Y0079114D01*
X0236022Y0078146D02*
X0237473Y0078146D01*
X0237957Y0078630D01*
X0237473Y0079114D01*
X0238961Y0080081D02*
X0239445Y0080081D01*
X0240412Y0079114D01*
X0240412Y0080081D02*
X0240412Y0078146D01*
X0241424Y0078146D02*
X0242875Y0078146D01*
X0243359Y0078630D01*
X0243359Y0079597D01*
X0242875Y0080081D01*
X0241424Y0080081D01*
X0241424Y0081049D02*
X0241424Y0078146D01*
X0244370Y0078146D02*
X0244370Y0079597D01*
X0244854Y0080081D01*
X0245822Y0080081D01*
X0245822Y0079114D02*
X0244370Y0079114D01*
X0244370Y0078146D02*
X0245822Y0078146D01*
X0246305Y0078630D01*
X0245822Y0079114D01*
X0247310Y0080081D02*
X0247793Y0080081D01*
X0248761Y0079114D01*
X0248761Y0080081D02*
X0248761Y0078146D01*
X0251707Y0078146D02*
X0249772Y0081049D01*
X0252719Y0081049D02*
X0254654Y0078146D01*
X0255643Y0078146D02*
X0256127Y0078146D01*
X0256127Y0078630D01*
X0255643Y0078630D01*
X0255643Y0078146D01*
X0255643Y0079597D02*
X0256127Y0079597D01*
X0256127Y0080081D01*
X0255643Y0080081D01*
X0255643Y0079597D01*
X0257139Y0080081D02*
X0258590Y0080081D01*
X0259074Y0079597D01*
X0258590Y0079114D01*
X0257622Y0079114D01*
X0257139Y0078630D01*
X0257622Y0078146D01*
X0259074Y0078146D01*
X0260085Y0078630D02*
X0260569Y0078146D01*
X0262020Y0078146D01*
X0262020Y0077179D02*
X0262020Y0080081D01*
X0260569Y0080081D01*
X0260085Y0079597D01*
X0260085Y0078630D01*
X0263017Y0078146D02*
X0263501Y0078630D01*
X0263501Y0080565D01*
X0263984Y0080081D02*
X0263017Y0080081D01*
X0264981Y0080081D02*
X0265949Y0080081D01*
X0265465Y0080565D02*
X0265465Y0078630D01*
X0264981Y0078146D01*
X0266960Y0078146D02*
X0266960Y0079597D01*
X0267444Y0080081D01*
X0268412Y0080081D01*
X0268895Y0079597D01*
X0268895Y0078146D02*
X0268895Y0081049D01*
X0221751Y0080081D02*
X0221267Y0080081D01*
X0202599Y0078146D02*
X0200664Y0081049D01*
X0199652Y0081049D02*
X0199652Y0078146D01*
X0197717Y0078146D01*
X0196706Y0078630D02*
X0196222Y0078146D01*
X0195254Y0078146D01*
X0194771Y0078630D01*
X0194771Y0079114D01*
X0195254Y0079597D01*
X0196222Y0079597D01*
X0196706Y0080081D01*
X0196706Y0080565D01*
X0196222Y0081049D01*
X0195254Y0081049D01*
X0194771Y0080565D01*
X0193759Y0081049D02*
X0193759Y0078146D01*
X0191824Y0078146D01*
X0190813Y0077662D02*
X0188878Y0077662D01*
X0187866Y0078630D02*
X0187382Y0078146D01*
X0186415Y0078146D01*
X0185931Y0078630D01*
X0185931Y0079114D01*
X0186415Y0079597D01*
X0186899Y0079597D01*
X0186415Y0079597D02*
X0185931Y0080081D01*
X0185931Y0080565D01*
X0186415Y0081049D01*
X0187382Y0081049D01*
X0187866Y0080565D01*
X0184920Y0080565D02*
X0184436Y0081049D01*
X0183468Y0081049D01*
X0182985Y0080565D01*
X0182985Y0080081D01*
X0184920Y0078146D01*
X0182985Y0078146D01*
X0181973Y0078630D02*
X0181489Y0078146D01*
X0180522Y0078146D01*
X0180038Y0078630D01*
X0180038Y0079114D01*
X0180522Y0079597D01*
X0181006Y0079597D01*
X0180522Y0079597D02*
X0180038Y0080081D01*
X0180038Y0080565D01*
X0180522Y0081049D01*
X0181489Y0081049D01*
X0181973Y0080565D01*
X0179027Y0077662D02*
X0177092Y0077662D01*
X0176080Y0078146D02*
X0176080Y0081049D01*
X0174629Y0081049D01*
X0174145Y0080565D01*
X0174145Y0079597D01*
X0174629Y0079114D01*
X0176080Y0079114D01*
X0173133Y0078630D02*
X0172650Y0078146D01*
X0171682Y0078146D01*
X0171198Y0078630D01*
X0170187Y0078146D02*
X0168736Y0078146D01*
X0168252Y0078630D01*
X0168252Y0079114D01*
X0168736Y0079597D01*
X0170187Y0079597D01*
X0171198Y0080565D02*
X0171682Y0081049D01*
X0172650Y0081049D01*
X0173133Y0080565D01*
X0173133Y0078630D01*
X0170187Y0078146D02*
X0170187Y0081049D01*
X0168736Y0081049D01*
X0168252Y0080565D01*
X0168252Y0080081D01*
X0168736Y0079597D01*
X0167240Y0077662D02*
X0165305Y0077662D01*
X0164294Y0078146D02*
X0162843Y0078146D01*
X0162359Y0078630D01*
X0162359Y0080565D01*
X0162843Y0081049D01*
X0164294Y0081049D01*
X0164294Y0078146D01*
X0161347Y0078630D02*
X0161347Y0079597D01*
X0160864Y0080081D01*
X0159896Y0080081D01*
X0159412Y0079597D01*
X0159412Y0079114D01*
X0161347Y0079114D01*
X0161347Y0078630D02*
X0160864Y0078146D01*
X0159896Y0078146D01*
X0158401Y0078146D02*
X0156950Y0078146D01*
X0156466Y0078630D01*
X0156950Y0079114D01*
X0157917Y0079114D01*
X0158401Y0079597D01*
X0157917Y0080081D01*
X0156466Y0080081D01*
X0155454Y0080081D02*
X0154971Y0080081D01*
X0154971Y0078146D01*
X0155454Y0078146D02*
X0154487Y0078146D01*
X0153490Y0078630D02*
X0153006Y0078146D01*
X0151555Y0078146D01*
X0151555Y0077662D02*
X0151555Y0080081D01*
X0153006Y0080081D01*
X0153490Y0079597D01*
X0153490Y0078630D01*
X0152523Y0077179D02*
X0152039Y0077179D01*
X0151555Y0077662D01*
X0150543Y0078146D02*
X0150543Y0080081D01*
X0149092Y0080081D01*
X0148609Y0079597D01*
X0148609Y0078146D01*
X0147597Y0078146D02*
X0145662Y0081049D01*
X0154971Y0081049D02*
X0154971Y0081532D01*
X0191824Y0081049D02*
X0193759Y0081049D01*
X0193759Y0079597D02*
X0192792Y0079597D01*
X0197717Y0081049D02*
X0199652Y0081049D01*
X0199652Y0079597D02*
X0198685Y0079597D01*
D13*
X0234912Y0034217D02*
X0234914Y0034286D01*
X0234920Y0034354D01*
X0234930Y0034422D01*
X0234944Y0034489D01*
X0234962Y0034556D01*
X0234983Y0034621D01*
X0235009Y0034685D01*
X0235038Y0034747D01*
X0235070Y0034807D01*
X0235106Y0034866D01*
X0235146Y0034922D01*
X0235188Y0034976D01*
X0235234Y0035027D01*
X0235283Y0035076D01*
X0235334Y0035122D01*
X0235388Y0035164D01*
X0235444Y0035204D01*
X0235502Y0035240D01*
X0235563Y0035272D01*
X0235625Y0035301D01*
X0235689Y0035327D01*
X0235754Y0035348D01*
X0235821Y0035366D01*
X0235888Y0035380D01*
X0235956Y0035390D01*
X0236024Y0035396D01*
X0236093Y0035398D01*
X0236162Y0035396D01*
X0236230Y0035390D01*
X0236298Y0035380D01*
X0236365Y0035366D01*
X0236432Y0035348D01*
X0236497Y0035327D01*
X0236561Y0035301D01*
X0236623Y0035272D01*
X0236683Y0035240D01*
X0236742Y0035204D01*
X0236798Y0035164D01*
X0236852Y0035122D01*
X0236903Y0035076D01*
X0236952Y0035027D01*
X0236998Y0034976D01*
X0237040Y0034922D01*
X0237080Y0034866D01*
X0237116Y0034807D01*
X0237148Y0034747D01*
X0237177Y0034685D01*
X0237203Y0034621D01*
X0237224Y0034556D01*
X0237242Y0034489D01*
X0237256Y0034422D01*
X0237266Y0034354D01*
X0237272Y0034286D01*
X0237274Y0034217D01*
X0237272Y0034148D01*
X0237266Y0034080D01*
X0237256Y0034012D01*
X0237242Y0033945D01*
X0237224Y0033878D01*
X0237203Y0033813D01*
X0237177Y0033749D01*
X0237148Y0033687D01*
X0237116Y0033626D01*
X0237080Y0033568D01*
X0237040Y0033512D01*
X0236998Y0033458D01*
X0236952Y0033407D01*
X0236903Y0033358D01*
X0236852Y0033312D01*
X0236798Y0033270D01*
X0236742Y0033230D01*
X0236684Y0033194D01*
X0236623Y0033162D01*
X0236561Y0033133D01*
X0236497Y0033107D01*
X0236432Y0033086D01*
X0236365Y0033068D01*
X0236298Y0033054D01*
X0236230Y0033044D01*
X0236162Y0033038D01*
X0236093Y0033036D01*
X0236024Y0033038D01*
X0235956Y0033044D01*
X0235888Y0033054D01*
X0235821Y0033068D01*
X0235754Y0033086D01*
X0235689Y0033107D01*
X0235625Y0033133D01*
X0235563Y0033162D01*
X0235502Y0033194D01*
X0235444Y0033230D01*
X0235388Y0033270D01*
X0235334Y0033312D01*
X0235283Y0033358D01*
X0235234Y0033407D01*
X0235188Y0033458D01*
X0235146Y0033512D01*
X0235106Y0033568D01*
X0235070Y0033626D01*
X0235038Y0033687D01*
X0235009Y0033749D01*
X0234983Y0033813D01*
X0234962Y0033878D01*
X0234944Y0033945D01*
X0234930Y0034012D01*
X0234920Y0034080D01*
X0234914Y0034148D01*
X0234912Y0034217D01*
X0253219Y0034413D02*
X0253221Y0034482D01*
X0253227Y0034550D01*
X0253237Y0034618D01*
X0253251Y0034685D01*
X0253269Y0034752D01*
X0253290Y0034817D01*
X0253316Y0034881D01*
X0253345Y0034943D01*
X0253377Y0035003D01*
X0253413Y0035062D01*
X0253453Y0035118D01*
X0253495Y0035172D01*
X0253541Y0035223D01*
X0253590Y0035272D01*
X0253641Y0035318D01*
X0253695Y0035360D01*
X0253751Y0035400D01*
X0253809Y0035436D01*
X0253870Y0035468D01*
X0253932Y0035497D01*
X0253996Y0035523D01*
X0254061Y0035544D01*
X0254128Y0035562D01*
X0254195Y0035576D01*
X0254263Y0035586D01*
X0254331Y0035592D01*
X0254400Y0035594D01*
X0254469Y0035592D01*
X0254537Y0035586D01*
X0254605Y0035576D01*
X0254672Y0035562D01*
X0254739Y0035544D01*
X0254804Y0035523D01*
X0254868Y0035497D01*
X0254930Y0035468D01*
X0254990Y0035436D01*
X0255049Y0035400D01*
X0255105Y0035360D01*
X0255159Y0035318D01*
X0255210Y0035272D01*
X0255259Y0035223D01*
X0255305Y0035172D01*
X0255347Y0035118D01*
X0255387Y0035062D01*
X0255423Y0035003D01*
X0255455Y0034943D01*
X0255484Y0034881D01*
X0255510Y0034817D01*
X0255531Y0034752D01*
X0255549Y0034685D01*
X0255563Y0034618D01*
X0255573Y0034550D01*
X0255579Y0034482D01*
X0255581Y0034413D01*
X0255579Y0034344D01*
X0255573Y0034276D01*
X0255563Y0034208D01*
X0255549Y0034141D01*
X0255531Y0034074D01*
X0255510Y0034009D01*
X0255484Y0033945D01*
X0255455Y0033883D01*
X0255423Y0033822D01*
X0255387Y0033764D01*
X0255347Y0033708D01*
X0255305Y0033654D01*
X0255259Y0033603D01*
X0255210Y0033554D01*
X0255159Y0033508D01*
X0255105Y0033466D01*
X0255049Y0033426D01*
X0254991Y0033390D01*
X0254930Y0033358D01*
X0254868Y0033329D01*
X0254804Y0033303D01*
X0254739Y0033282D01*
X0254672Y0033264D01*
X0254605Y0033250D01*
X0254537Y0033240D01*
X0254469Y0033234D01*
X0254400Y0033232D01*
X0254331Y0033234D01*
X0254263Y0033240D01*
X0254195Y0033250D01*
X0254128Y0033264D01*
X0254061Y0033282D01*
X0253996Y0033303D01*
X0253932Y0033329D01*
X0253870Y0033358D01*
X0253809Y0033390D01*
X0253751Y0033426D01*
X0253695Y0033466D01*
X0253641Y0033508D01*
X0253590Y0033554D01*
X0253541Y0033603D01*
X0253495Y0033654D01*
X0253453Y0033708D01*
X0253413Y0033764D01*
X0253377Y0033822D01*
X0253345Y0033883D01*
X0253316Y0033945D01*
X0253290Y0034009D01*
X0253269Y0034074D01*
X0253251Y0034141D01*
X0253237Y0034208D01*
X0253227Y0034276D01*
X0253221Y0034344D01*
X0253219Y0034413D01*
X0303416Y0025122D02*
X0303418Y0025280D01*
X0303424Y0025438D01*
X0303434Y0025596D01*
X0303448Y0025754D01*
X0303466Y0025911D01*
X0303487Y0026068D01*
X0303513Y0026224D01*
X0303543Y0026380D01*
X0303576Y0026535D01*
X0303614Y0026688D01*
X0303655Y0026841D01*
X0303700Y0026993D01*
X0303749Y0027144D01*
X0303802Y0027293D01*
X0303858Y0027441D01*
X0303918Y0027587D01*
X0303982Y0027732D01*
X0304050Y0027875D01*
X0304121Y0028017D01*
X0304195Y0028157D01*
X0304273Y0028294D01*
X0304355Y0028430D01*
X0304439Y0028564D01*
X0304528Y0028695D01*
X0304619Y0028824D01*
X0304714Y0028951D01*
X0304811Y0029076D01*
X0304912Y0029198D01*
X0305016Y0029317D01*
X0305123Y0029434D01*
X0305233Y0029548D01*
X0305346Y0029659D01*
X0305461Y0029768D01*
X0305579Y0029873D01*
X0305700Y0029975D01*
X0305823Y0030075D01*
X0305949Y0030171D01*
X0306077Y0030264D01*
X0306207Y0030354D01*
X0306340Y0030440D01*
X0306475Y0030524D01*
X0306611Y0030603D01*
X0306750Y0030680D01*
X0306891Y0030752D01*
X0307033Y0030822D01*
X0307177Y0030887D01*
X0307323Y0030949D01*
X0307470Y0031007D01*
X0307619Y0031062D01*
X0307769Y0031113D01*
X0307920Y0031160D01*
X0308072Y0031203D01*
X0308225Y0031242D01*
X0308380Y0031278D01*
X0308535Y0031309D01*
X0308691Y0031337D01*
X0308847Y0031361D01*
X0309004Y0031381D01*
X0309162Y0031397D01*
X0309319Y0031409D01*
X0309478Y0031417D01*
X0309636Y0031421D01*
X0309794Y0031421D01*
X0309952Y0031417D01*
X0310111Y0031409D01*
X0310268Y0031397D01*
X0310426Y0031381D01*
X0310583Y0031361D01*
X0310739Y0031337D01*
X0310895Y0031309D01*
X0311050Y0031278D01*
X0311205Y0031242D01*
X0311358Y0031203D01*
X0311510Y0031160D01*
X0311661Y0031113D01*
X0311811Y0031062D01*
X0311960Y0031007D01*
X0312107Y0030949D01*
X0312253Y0030887D01*
X0312397Y0030822D01*
X0312539Y0030752D01*
X0312680Y0030680D01*
X0312819Y0030603D01*
X0312955Y0030524D01*
X0313090Y0030440D01*
X0313223Y0030354D01*
X0313353Y0030264D01*
X0313481Y0030171D01*
X0313607Y0030075D01*
X0313730Y0029975D01*
X0313851Y0029873D01*
X0313969Y0029768D01*
X0314084Y0029659D01*
X0314197Y0029548D01*
X0314307Y0029434D01*
X0314414Y0029317D01*
X0314518Y0029198D01*
X0314619Y0029076D01*
X0314716Y0028951D01*
X0314811Y0028824D01*
X0314902Y0028695D01*
X0314991Y0028564D01*
X0315075Y0028430D01*
X0315157Y0028294D01*
X0315235Y0028157D01*
X0315309Y0028017D01*
X0315380Y0027875D01*
X0315448Y0027732D01*
X0315512Y0027587D01*
X0315572Y0027441D01*
X0315628Y0027293D01*
X0315681Y0027144D01*
X0315730Y0026993D01*
X0315775Y0026841D01*
X0315816Y0026688D01*
X0315854Y0026535D01*
X0315887Y0026380D01*
X0315917Y0026224D01*
X0315943Y0026068D01*
X0315964Y0025911D01*
X0315982Y0025754D01*
X0315996Y0025596D01*
X0316006Y0025438D01*
X0316012Y0025280D01*
X0316014Y0025122D01*
X0316012Y0024964D01*
X0316006Y0024806D01*
X0315996Y0024648D01*
X0315982Y0024490D01*
X0315964Y0024333D01*
X0315943Y0024176D01*
X0315917Y0024020D01*
X0315887Y0023864D01*
X0315854Y0023709D01*
X0315816Y0023556D01*
X0315775Y0023403D01*
X0315730Y0023251D01*
X0315681Y0023100D01*
X0315628Y0022951D01*
X0315572Y0022803D01*
X0315512Y0022657D01*
X0315448Y0022512D01*
X0315380Y0022369D01*
X0315309Y0022227D01*
X0315235Y0022087D01*
X0315157Y0021950D01*
X0315075Y0021814D01*
X0314991Y0021680D01*
X0314902Y0021549D01*
X0314811Y0021420D01*
X0314716Y0021293D01*
X0314619Y0021168D01*
X0314518Y0021046D01*
X0314414Y0020927D01*
X0314307Y0020810D01*
X0314197Y0020696D01*
X0314084Y0020585D01*
X0313969Y0020476D01*
X0313851Y0020371D01*
X0313730Y0020269D01*
X0313607Y0020169D01*
X0313481Y0020073D01*
X0313353Y0019980D01*
X0313223Y0019890D01*
X0313090Y0019804D01*
X0312955Y0019720D01*
X0312819Y0019641D01*
X0312680Y0019564D01*
X0312539Y0019492D01*
X0312397Y0019422D01*
X0312253Y0019357D01*
X0312107Y0019295D01*
X0311960Y0019237D01*
X0311811Y0019182D01*
X0311661Y0019131D01*
X0311510Y0019084D01*
X0311358Y0019041D01*
X0311205Y0019002D01*
X0311050Y0018966D01*
X0310895Y0018935D01*
X0310739Y0018907D01*
X0310583Y0018883D01*
X0310426Y0018863D01*
X0310268Y0018847D01*
X0310111Y0018835D01*
X0309952Y0018827D01*
X0309794Y0018823D01*
X0309636Y0018823D01*
X0309478Y0018827D01*
X0309319Y0018835D01*
X0309162Y0018847D01*
X0309004Y0018863D01*
X0308847Y0018883D01*
X0308691Y0018907D01*
X0308535Y0018935D01*
X0308380Y0018966D01*
X0308225Y0019002D01*
X0308072Y0019041D01*
X0307920Y0019084D01*
X0307769Y0019131D01*
X0307619Y0019182D01*
X0307470Y0019237D01*
X0307323Y0019295D01*
X0307177Y0019357D01*
X0307033Y0019422D01*
X0306891Y0019492D01*
X0306750Y0019564D01*
X0306611Y0019641D01*
X0306475Y0019720D01*
X0306340Y0019804D01*
X0306207Y0019890D01*
X0306077Y0019980D01*
X0305949Y0020073D01*
X0305823Y0020169D01*
X0305700Y0020269D01*
X0305579Y0020371D01*
X0305461Y0020476D01*
X0305346Y0020585D01*
X0305233Y0020696D01*
X0305123Y0020810D01*
X0305016Y0020927D01*
X0304912Y0021046D01*
X0304811Y0021168D01*
X0304714Y0021293D01*
X0304619Y0021420D01*
X0304528Y0021549D01*
X0304439Y0021680D01*
X0304355Y0021814D01*
X0304273Y0021950D01*
X0304195Y0022087D01*
X0304121Y0022227D01*
X0304050Y0022369D01*
X0303982Y0022512D01*
X0303918Y0022657D01*
X0303858Y0022803D01*
X0303802Y0022951D01*
X0303749Y0023100D01*
X0303700Y0023251D01*
X0303655Y0023403D01*
X0303614Y0023556D01*
X0303576Y0023709D01*
X0303543Y0023864D01*
X0303513Y0024020D01*
X0303487Y0024176D01*
X0303466Y0024333D01*
X0303448Y0024490D01*
X0303434Y0024648D01*
X0303424Y0024806D01*
X0303418Y0024964D01*
X0303416Y0025122D01*
X0279360Y0182642D02*
X0279362Y0182800D01*
X0279368Y0182958D01*
X0279378Y0183116D01*
X0279392Y0183274D01*
X0279410Y0183431D01*
X0279431Y0183588D01*
X0279457Y0183744D01*
X0279487Y0183900D01*
X0279520Y0184055D01*
X0279558Y0184208D01*
X0279599Y0184361D01*
X0279644Y0184513D01*
X0279693Y0184664D01*
X0279746Y0184813D01*
X0279802Y0184961D01*
X0279862Y0185107D01*
X0279926Y0185252D01*
X0279994Y0185395D01*
X0280065Y0185537D01*
X0280139Y0185677D01*
X0280217Y0185814D01*
X0280299Y0185950D01*
X0280383Y0186084D01*
X0280472Y0186215D01*
X0280563Y0186344D01*
X0280658Y0186471D01*
X0280755Y0186596D01*
X0280856Y0186718D01*
X0280960Y0186837D01*
X0281067Y0186954D01*
X0281177Y0187068D01*
X0281290Y0187179D01*
X0281405Y0187288D01*
X0281523Y0187393D01*
X0281644Y0187495D01*
X0281767Y0187595D01*
X0281893Y0187691D01*
X0282021Y0187784D01*
X0282151Y0187874D01*
X0282284Y0187960D01*
X0282419Y0188044D01*
X0282555Y0188123D01*
X0282694Y0188200D01*
X0282835Y0188272D01*
X0282977Y0188342D01*
X0283121Y0188407D01*
X0283267Y0188469D01*
X0283414Y0188527D01*
X0283563Y0188582D01*
X0283713Y0188633D01*
X0283864Y0188680D01*
X0284016Y0188723D01*
X0284169Y0188762D01*
X0284324Y0188798D01*
X0284479Y0188829D01*
X0284635Y0188857D01*
X0284791Y0188881D01*
X0284948Y0188901D01*
X0285106Y0188917D01*
X0285263Y0188929D01*
X0285422Y0188937D01*
X0285580Y0188941D01*
X0285738Y0188941D01*
X0285896Y0188937D01*
X0286055Y0188929D01*
X0286212Y0188917D01*
X0286370Y0188901D01*
X0286527Y0188881D01*
X0286683Y0188857D01*
X0286839Y0188829D01*
X0286994Y0188798D01*
X0287149Y0188762D01*
X0287302Y0188723D01*
X0287454Y0188680D01*
X0287605Y0188633D01*
X0287755Y0188582D01*
X0287904Y0188527D01*
X0288051Y0188469D01*
X0288197Y0188407D01*
X0288341Y0188342D01*
X0288483Y0188272D01*
X0288624Y0188200D01*
X0288763Y0188123D01*
X0288899Y0188044D01*
X0289034Y0187960D01*
X0289167Y0187874D01*
X0289297Y0187784D01*
X0289425Y0187691D01*
X0289551Y0187595D01*
X0289674Y0187495D01*
X0289795Y0187393D01*
X0289913Y0187288D01*
X0290028Y0187179D01*
X0290141Y0187068D01*
X0290251Y0186954D01*
X0290358Y0186837D01*
X0290462Y0186718D01*
X0290563Y0186596D01*
X0290660Y0186471D01*
X0290755Y0186344D01*
X0290846Y0186215D01*
X0290935Y0186084D01*
X0291019Y0185950D01*
X0291101Y0185814D01*
X0291179Y0185677D01*
X0291253Y0185537D01*
X0291324Y0185395D01*
X0291392Y0185252D01*
X0291456Y0185107D01*
X0291516Y0184961D01*
X0291572Y0184813D01*
X0291625Y0184664D01*
X0291674Y0184513D01*
X0291719Y0184361D01*
X0291760Y0184208D01*
X0291798Y0184055D01*
X0291831Y0183900D01*
X0291861Y0183744D01*
X0291887Y0183588D01*
X0291908Y0183431D01*
X0291926Y0183274D01*
X0291940Y0183116D01*
X0291950Y0182958D01*
X0291956Y0182800D01*
X0291958Y0182642D01*
X0291956Y0182484D01*
X0291950Y0182326D01*
X0291940Y0182168D01*
X0291926Y0182010D01*
X0291908Y0181853D01*
X0291887Y0181696D01*
X0291861Y0181540D01*
X0291831Y0181384D01*
X0291798Y0181229D01*
X0291760Y0181076D01*
X0291719Y0180923D01*
X0291674Y0180771D01*
X0291625Y0180620D01*
X0291572Y0180471D01*
X0291516Y0180323D01*
X0291456Y0180177D01*
X0291392Y0180032D01*
X0291324Y0179889D01*
X0291253Y0179747D01*
X0291179Y0179607D01*
X0291101Y0179470D01*
X0291019Y0179334D01*
X0290935Y0179200D01*
X0290846Y0179069D01*
X0290755Y0178940D01*
X0290660Y0178813D01*
X0290563Y0178688D01*
X0290462Y0178566D01*
X0290358Y0178447D01*
X0290251Y0178330D01*
X0290141Y0178216D01*
X0290028Y0178105D01*
X0289913Y0177996D01*
X0289795Y0177891D01*
X0289674Y0177789D01*
X0289551Y0177689D01*
X0289425Y0177593D01*
X0289297Y0177500D01*
X0289167Y0177410D01*
X0289034Y0177324D01*
X0288899Y0177240D01*
X0288763Y0177161D01*
X0288624Y0177084D01*
X0288483Y0177012D01*
X0288341Y0176942D01*
X0288197Y0176877D01*
X0288051Y0176815D01*
X0287904Y0176757D01*
X0287755Y0176702D01*
X0287605Y0176651D01*
X0287454Y0176604D01*
X0287302Y0176561D01*
X0287149Y0176522D01*
X0286994Y0176486D01*
X0286839Y0176455D01*
X0286683Y0176427D01*
X0286527Y0176403D01*
X0286370Y0176383D01*
X0286212Y0176367D01*
X0286055Y0176355D01*
X0285896Y0176347D01*
X0285738Y0176343D01*
X0285580Y0176343D01*
X0285422Y0176347D01*
X0285263Y0176355D01*
X0285106Y0176367D01*
X0284948Y0176383D01*
X0284791Y0176403D01*
X0284635Y0176427D01*
X0284479Y0176455D01*
X0284324Y0176486D01*
X0284169Y0176522D01*
X0284016Y0176561D01*
X0283864Y0176604D01*
X0283713Y0176651D01*
X0283563Y0176702D01*
X0283414Y0176757D01*
X0283267Y0176815D01*
X0283121Y0176877D01*
X0282977Y0176942D01*
X0282835Y0177012D01*
X0282694Y0177084D01*
X0282555Y0177161D01*
X0282419Y0177240D01*
X0282284Y0177324D01*
X0282151Y0177410D01*
X0282021Y0177500D01*
X0281893Y0177593D01*
X0281767Y0177689D01*
X0281644Y0177789D01*
X0281523Y0177891D01*
X0281405Y0177996D01*
X0281290Y0178105D01*
X0281177Y0178216D01*
X0281067Y0178330D01*
X0280960Y0178447D01*
X0280856Y0178566D01*
X0280755Y0178688D01*
X0280658Y0178813D01*
X0280563Y0178940D01*
X0280472Y0179069D01*
X0280383Y0179200D01*
X0280299Y0179334D01*
X0280217Y0179470D01*
X0280139Y0179607D01*
X0280065Y0179747D01*
X0279994Y0179889D01*
X0279926Y0180032D01*
X0279862Y0180177D01*
X0279802Y0180323D01*
X0279746Y0180471D01*
X0279693Y0180620D01*
X0279644Y0180771D01*
X0279599Y0180923D01*
X0279558Y0181076D01*
X0279520Y0181229D01*
X0279487Y0181384D01*
X0279457Y0181540D01*
X0279431Y0181696D01*
X0279410Y0181853D01*
X0279392Y0182010D01*
X0279378Y0182168D01*
X0279368Y0182326D01*
X0279362Y0182484D01*
X0279360Y0182642D01*
X0126250Y0202287D02*
X0126252Y0202445D01*
X0126258Y0202603D01*
X0126268Y0202761D01*
X0126282Y0202919D01*
X0126300Y0203076D01*
X0126321Y0203233D01*
X0126347Y0203389D01*
X0126377Y0203545D01*
X0126410Y0203700D01*
X0126448Y0203853D01*
X0126489Y0204006D01*
X0126534Y0204158D01*
X0126583Y0204309D01*
X0126636Y0204458D01*
X0126692Y0204606D01*
X0126752Y0204752D01*
X0126816Y0204897D01*
X0126884Y0205040D01*
X0126955Y0205182D01*
X0127029Y0205322D01*
X0127107Y0205459D01*
X0127189Y0205595D01*
X0127273Y0205729D01*
X0127362Y0205860D01*
X0127453Y0205989D01*
X0127548Y0206116D01*
X0127645Y0206241D01*
X0127746Y0206363D01*
X0127850Y0206482D01*
X0127957Y0206599D01*
X0128067Y0206713D01*
X0128180Y0206824D01*
X0128295Y0206933D01*
X0128413Y0207038D01*
X0128534Y0207140D01*
X0128657Y0207240D01*
X0128783Y0207336D01*
X0128911Y0207429D01*
X0129041Y0207519D01*
X0129174Y0207605D01*
X0129309Y0207689D01*
X0129445Y0207768D01*
X0129584Y0207845D01*
X0129725Y0207917D01*
X0129867Y0207987D01*
X0130011Y0208052D01*
X0130157Y0208114D01*
X0130304Y0208172D01*
X0130453Y0208227D01*
X0130603Y0208278D01*
X0130754Y0208325D01*
X0130906Y0208368D01*
X0131059Y0208407D01*
X0131214Y0208443D01*
X0131369Y0208474D01*
X0131525Y0208502D01*
X0131681Y0208526D01*
X0131838Y0208546D01*
X0131996Y0208562D01*
X0132153Y0208574D01*
X0132312Y0208582D01*
X0132470Y0208586D01*
X0132628Y0208586D01*
X0132786Y0208582D01*
X0132945Y0208574D01*
X0133102Y0208562D01*
X0133260Y0208546D01*
X0133417Y0208526D01*
X0133573Y0208502D01*
X0133729Y0208474D01*
X0133884Y0208443D01*
X0134039Y0208407D01*
X0134192Y0208368D01*
X0134344Y0208325D01*
X0134495Y0208278D01*
X0134645Y0208227D01*
X0134794Y0208172D01*
X0134941Y0208114D01*
X0135087Y0208052D01*
X0135231Y0207987D01*
X0135373Y0207917D01*
X0135514Y0207845D01*
X0135653Y0207768D01*
X0135789Y0207689D01*
X0135924Y0207605D01*
X0136057Y0207519D01*
X0136187Y0207429D01*
X0136315Y0207336D01*
X0136441Y0207240D01*
X0136564Y0207140D01*
X0136685Y0207038D01*
X0136803Y0206933D01*
X0136918Y0206824D01*
X0137031Y0206713D01*
X0137141Y0206599D01*
X0137248Y0206482D01*
X0137352Y0206363D01*
X0137453Y0206241D01*
X0137550Y0206116D01*
X0137645Y0205989D01*
X0137736Y0205860D01*
X0137825Y0205729D01*
X0137909Y0205595D01*
X0137991Y0205459D01*
X0138069Y0205322D01*
X0138143Y0205182D01*
X0138214Y0205040D01*
X0138282Y0204897D01*
X0138346Y0204752D01*
X0138406Y0204606D01*
X0138462Y0204458D01*
X0138515Y0204309D01*
X0138564Y0204158D01*
X0138609Y0204006D01*
X0138650Y0203853D01*
X0138688Y0203700D01*
X0138721Y0203545D01*
X0138751Y0203389D01*
X0138777Y0203233D01*
X0138798Y0203076D01*
X0138816Y0202919D01*
X0138830Y0202761D01*
X0138840Y0202603D01*
X0138846Y0202445D01*
X0138848Y0202287D01*
X0138846Y0202129D01*
X0138840Y0201971D01*
X0138830Y0201813D01*
X0138816Y0201655D01*
X0138798Y0201498D01*
X0138777Y0201341D01*
X0138751Y0201185D01*
X0138721Y0201029D01*
X0138688Y0200874D01*
X0138650Y0200721D01*
X0138609Y0200568D01*
X0138564Y0200416D01*
X0138515Y0200265D01*
X0138462Y0200116D01*
X0138406Y0199968D01*
X0138346Y0199822D01*
X0138282Y0199677D01*
X0138214Y0199534D01*
X0138143Y0199392D01*
X0138069Y0199252D01*
X0137991Y0199115D01*
X0137909Y0198979D01*
X0137825Y0198845D01*
X0137736Y0198714D01*
X0137645Y0198585D01*
X0137550Y0198458D01*
X0137453Y0198333D01*
X0137352Y0198211D01*
X0137248Y0198092D01*
X0137141Y0197975D01*
X0137031Y0197861D01*
X0136918Y0197750D01*
X0136803Y0197641D01*
X0136685Y0197536D01*
X0136564Y0197434D01*
X0136441Y0197334D01*
X0136315Y0197238D01*
X0136187Y0197145D01*
X0136057Y0197055D01*
X0135924Y0196969D01*
X0135789Y0196885D01*
X0135653Y0196806D01*
X0135514Y0196729D01*
X0135373Y0196657D01*
X0135231Y0196587D01*
X0135087Y0196522D01*
X0134941Y0196460D01*
X0134794Y0196402D01*
X0134645Y0196347D01*
X0134495Y0196296D01*
X0134344Y0196249D01*
X0134192Y0196206D01*
X0134039Y0196167D01*
X0133884Y0196131D01*
X0133729Y0196100D01*
X0133573Y0196072D01*
X0133417Y0196048D01*
X0133260Y0196028D01*
X0133102Y0196012D01*
X0132945Y0196000D01*
X0132786Y0195992D01*
X0132628Y0195988D01*
X0132470Y0195988D01*
X0132312Y0195992D01*
X0132153Y0196000D01*
X0131996Y0196012D01*
X0131838Y0196028D01*
X0131681Y0196048D01*
X0131525Y0196072D01*
X0131369Y0196100D01*
X0131214Y0196131D01*
X0131059Y0196167D01*
X0130906Y0196206D01*
X0130754Y0196249D01*
X0130603Y0196296D01*
X0130453Y0196347D01*
X0130304Y0196402D01*
X0130157Y0196460D01*
X0130011Y0196522D01*
X0129867Y0196587D01*
X0129725Y0196657D01*
X0129584Y0196729D01*
X0129445Y0196806D01*
X0129309Y0196885D01*
X0129174Y0196969D01*
X0129041Y0197055D01*
X0128911Y0197145D01*
X0128783Y0197238D01*
X0128657Y0197334D01*
X0128534Y0197434D01*
X0128413Y0197536D01*
X0128295Y0197641D01*
X0128180Y0197750D01*
X0128067Y0197861D01*
X0127957Y0197975D01*
X0127850Y0198092D01*
X0127746Y0198211D01*
X0127645Y0198333D01*
X0127548Y0198458D01*
X0127453Y0198585D01*
X0127362Y0198714D01*
X0127273Y0198845D01*
X0127189Y0198979D01*
X0127107Y0199115D01*
X0127029Y0199252D01*
X0126955Y0199392D01*
X0126884Y0199534D01*
X0126816Y0199677D01*
X0126752Y0199822D01*
X0126692Y0199968D01*
X0126636Y0200116D01*
X0126583Y0200265D01*
X0126534Y0200416D01*
X0126489Y0200568D01*
X0126448Y0200721D01*
X0126410Y0200874D01*
X0126377Y0201029D01*
X0126347Y0201185D01*
X0126321Y0201341D01*
X0126300Y0201498D01*
X0126282Y0201655D01*
X0126268Y0201813D01*
X0126258Y0201971D01*
X0126252Y0202129D01*
X0126250Y0202287D01*
D14*
X0117943Y0024492D02*
X0117943Y0011185D01*
X0326053Y0011185D01*
X0326053Y0218193D01*
X0117589Y0218193D01*
X0117589Y0015280D01*
X0120305Y0015280D01*
D15*
X0279308Y0182720D02*
X0279310Y0182879D01*
X0279316Y0183039D01*
X0279326Y0183198D01*
X0279340Y0183356D01*
X0279358Y0183515D01*
X0279379Y0183673D01*
X0279405Y0183830D01*
X0279435Y0183986D01*
X0279468Y0184142D01*
X0279506Y0184297D01*
X0279547Y0184451D01*
X0279592Y0184604D01*
X0279641Y0184755D01*
X0279693Y0184906D01*
X0279750Y0185055D01*
X0279810Y0185202D01*
X0279874Y0185349D01*
X0279941Y0185493D01*
X0280012Y0185636D01*
X0280086Y0185777D01*
X0280164Y0185916D01*
X0280246Y0186052D01*
X0280330Y0186187D01*
X0280419Y0186320D01*
X0280510Y0186451D01*
X0280605Y0186579D01*
X0280702Y0186705D01*
X0280803Y0186828D01*
X0280907Y0186949D01*
X0281014Y0187067D01*
X0281124Y0187182D01*
X0281237Y0187295D01*
X0281352Y0187405D01*
X0281470Y0187512D01*
X0281591Y0187616D01*
X0281714Y0187717D01*
X0281840Y0187814D01*
X0281968Y0187909D01*
X0282099Y0188000D01*
X0282232Y0188089D01*
X0282367Y0188173D01*
X0282504Y0188255D01*
X0282642Y0188333D01*
X0282783Y0188407D01*
X0282926Y0188478D01*
X0283070Y0188545D01*
X0283217Y0188609D01*
X0283364Y0188669D01*
X0283513Y0188726D01*
X0283664Y0188778D01*
X0283815Y0188827D01*
X0283968Y0188872D01*
X0284122Y0188913D01*
X0284277Y0188951D01*
X0284433Y0188984D01*
X0284589Y0189014D01*
X0284746Y0189040D01*
X0284904Y0189061D01*
X0285063Y0189079D01*
X0285221Y0189093D01*
X0285380Y0189103D01*
X0285540Y0189109D01*
X0285699Y0189111D01*
X0285858Y0189109D01*
X0286018Y0189103D01*
X0286177Y0189093D01*
X0286335Y0189079D01*
X0286494Y0189061D01*
X0286652Y0189040D01*
X0286809Y0189014D01*
X0286965Y0188984D01*
X0287121Y0188951D01*
X0287276Y0188913D01*
X0287430Y0188872D01*
X0287583Y0188827D01*
X0287734Y0188778D01*
X0287885Y0188726D01*
X0288034Y0188669D01*
X0288181Y0188609D01*
X0288328Y0188545D01*
X0288472Y0188478D01*
X0288615Y0188407D01*
X0288756Y0188333D01*
X0288895Y0188255D01*
X0289031Y0188173D01*
X0289166Y0188089D01*
X0289299Y0188000D01*
X0289430Y0187909D01*
X0289558Y0187814D01*
X0289684Y0187717D01*
X0289807Y0187616D01*
X0289928Y0187512D01*
X0290046Y0187405D01*
X0290161Y0187295D01*
X0290274Y0187182D01*
X0290384Y0187067D01*
X0290491Y0186949D01*
X0290595Y0186828D01*
X0290696Y0186705D01*
X0290793Y0186579D01*
X0290888Y0186451D01*
X0290979Y0186320D01*
X0291068Y0186187D01*
X0291152Y0186052D01*
X0291234Y0185915D01*
X0291312Y0185777D01*
X0291386Y0185636D01*
X0291457Y0185493D01*
X0291524Y0185349D01*
X0291588Y0185202D01*
X0291648Y0185055D01*
X0291705Y0184906D01*
X0291757Y0184755D01*
X0291806Y0184604D01*
X0291851Y0184451D01*
X0291892Y0184297D01*
X0291930Y0184142D01*
X0291963Y0183986D01*
X0291993Y0183830D01*
X0292019Y0183673D01*
X0292040Y0183515D01*
X0292058Y0183356D01*
X0292072Y0183198D01*
X0292082Y0183039D01*
X0292088Y0182879D01*
X0292090Y0182720D01*
X0292088Y0182561D01*
X0292082Y0182401D01*
X0292072Y0182242D01*
X0292058Y0182084D01*
X0292040Y0181925D01*
X0292019Y0181767D01*
X0291993Y0181610D01*
X0291963Y0181454D01*
X0291930Y0181298D01*
X0291892Y0181143D01*
X0291851Y0180989D01*
X0291806Y0180836D01*
X0291757Y0180685D01*
X0291705Y0180534D01*
X0291648Y0180385D01*
X0291588Y0180238D01*
X0291524Y0180091D01*
X0291457Y0179947D01*
X0291386Y0179804D01*
X0291312Y0179663D01*
X0291234Y0179524D01*
X0291152Y0179388D01*
X0291068Y0179253D01*
X0290979Y0179120D01*
X0290888Y0178989D01*
X0290793Y0178861D01*
X0290696Y0178735D01*
X0290595Y0178612D01*
X0290491Y0178491D01*
X0290384Y0178373D01*
X0290274Y0178258D01*
X0290161Y0178145D01*
X0290046Y0178035D01*
X0289928Y0177928D01*
X0289807Y0177824D01*
X0289684Y0177723D01*
X0289558Y0177626D01*
X0289430Y0177531D01*
X0289299Y0177440D01*
X0289166Y0177351D01*
X0289031Y0177267D01*
X0288894Y0177185D01*
X0288756Y0177107D01*
X0288615Y0177033D01*
X0288472Y0176962D01*
X0288328Y0176895D01*
X0288181Y0176831D01*
X0288034Y0176771D01*
X0287885Y0176714D01*
X0287734Y0176662D01*
X0287583Y0176613D01*
X0287430Y0176568D01*
X0287276Y0176527D01*
X0287121Y0176489D01*
X0286965Y0176456D01*
X0286809Y0176426D01*
X0286652Y0176400D01*
X0286494Y0176379D01*
X0286335Y0176361D01*
X0286177Y0176347D01*
X0286018Y0176337D01*
X0285858Y0176331D01*
X0285699Y0176329D01*
X0285540Y0176331D01*
X0285380Y0176337D01*
X0285221Y0176347D01*
X0285063Y0176361D01*
X0284904Y0176379D01*
X0284746Y0176400D01*
X0284589Y0176426D01*
X0284433Y0176456D01*
X0284277Y0176489D01*
X0284122Y0176527D01*
X0283968Y0176568D01*
X0283815Y0176613D01*
X0283664Y0176662D01*
X0283513Y0176714D01*
X0283364Y0176771D01*
X0283217Y0176831D01*
X0283070Y0176895D01*
X0282926Y0176962D01*
X0282783Y0177033D01*
X0282642Y0177107D01*
X0282503Y0177185D01*
X0282367Y0177267D01*
X0282232Y0177351D01*
X0282099Y0177440D01*
X0281968Y0177531D01*
X0281840Y0177626D01*
X0281714Y0177723D01*
X0281591Y0177824D01*
X0281470Y0177928D01*
X0281352Y0178035D01*
X0281237Y0178145D01*
X0281124Y0178258D01*
X0281014Y0178373D01*
X0280907Y0178491D01*
X0280803Y0178612D01*
X0280702Y0178735D01*
X0280605Y0178861D01*
X0280510Y0178989D01*
X0280419Y0179120D01*
X0280330Y0179253D01*
X0280246Y0179388D01*
X0280164Y0179525D01*
X0280086Y0179663D01*
X0280012Y0179804D01*
X0279941Y0179947D01*
X0279874Y0180091D01*
X0279810Y0180238D01*
X0279750Y0180385D01*
X0279693Y0180534D01*
X0279641Y0180685D01*
X0279592Y0180836D01*
X0279547Y0180989D01*
X0279506Y0181143D01*
X0279468Y0181298D01*
X0279435Y0181454D01*
X0279405Y0181610D01*
X0279379Y0181767D01*
X0279358Y0181925D01*
X0279340Y0182084D01*
X0279326Y0182242D01*
X0279316Y0182401D01*
X0279310Y0182561D01*
X0279308Y0182720D01*
M02*
